<svg xmlns="http://www.w3.org/2000/svg" width="110.738" height="108.081" viewBox="0 0 110.738 108.081">
  <g id="Group_779" data-name="Group 779" transform="translate(-516.781 -557.116)">
    <g id="Group_777" data-name="Group 777" transform="translate(517.519 558)" opacity="0.12">
      <g id="Group_776" data-name="Group 776" transform="translate(0 0)">
        <rect id="Rectangle_1696" data-name="Rectangle 1696" width="26.235" height="1.205" transform="matrix(0.566, -0.825, 0.825, 0.566, 12.76, 61.046)" fill="#ffbb10" stroke="#ffbb10" stroke-width="1"/>
        <path id="Path_3592" data-name="Path 3592" d="M538.266,1164.152l-20.747-10.25,6.127-8.932.994.681-5.341,7.786,19.5,9.634Z" transform="translate(-517.519 -1074.252)" fill="#ffbb10" stroke="#ffbb10" stroke-width="1"/>
        <path id="Path_3593" data-name="Path 3593" d="M889.7,1395.1l-11.132-5.5.534-1.08,10.6,5.236,10.13-5,.534,1.08Z" transform="translate(-835.068 -1288.457)" fill="#ffbb10" stroke="#ffbb10" stroke-width="1"/>
        <path id="Path_3594" data-name="Path 3594" d="M1320.727,1098.436l-.534-1.08,8.955-4.424-11.025-16.074.994-.681,11.812,17.22Z" transform="translate(-1221.667 -1013.747)" fill="#ffbb10" stroke="#ffbb10" stroke-width="1"/>
        <path id="Path_3595" data-name="Path 3595" d="M870.581,576.489l-.994-.682L881.8,558l11.972,17.456-.994.681L881.8,560.13Z" transform="translate(-827.171 -558)" fill="#ffbb10" stroke="#ffbb10" stroke-width="1"/>
        <rect id="Rectangle_1697" data-name="Rectangle 1697" width="1.205" height="28.556" transform="matrix(0.443, -0.897, 0.897, 0.443, 19.627, 84.912)" fill="#ffbb10" stroke="#ffbb10" stroke-width="1"/>
        <path id="Path_3596" data-name="Path 3596" d="M1277.424,1094.515l-.534-1.08,9.4-4.644-10.219-14.9.993-.681,11,16.045Z" transform="translate(-1184.682 -1011.138)" fill="#ffbb10" stroke="#ffbb10" stroke-width="1"/>
        <rect id="Rectangle_1698" data-name="Rectangle 1698" width="1.205" height="44.943" transform="matrix(0.825, -0.566, 0.566, 0.825, 65.969, 25.69)" fill="#ffbb10" stroke="#ffbb10" stroke-width="1"/>
        <g id="Group_775" data-name="Group 775" transform="translate(12.012 13.739)">
          <g id="Group_773" data-name="Group 773" transform="translate(0 54.748)">
            <path id="Path_3597" data-name="Path 3597" d="M707.772,1237.1a.061.061,0,0,1-.027-.006l-.972-.48a.06.06,0,1,1,.053-.108l.972.48a.06.06,0,0,1-.027.114Z" transform="translate(-695.955 -1223.238)" fill="#ffbb10" stroke="#ffbb10" stroke-width="1"/>
            <path id="Path_3598" data-name="Path 3598" d="M647.7,1207.42a.061.061,0,0,1-.027-.006l-1.957-.967a.06.06,0,1,1,.053-.108l1.957.967a.06.06,0,0,1-.027.115Zm-3.914-1.933a.061.061,0,0,1-.027-.006l-1.957-.967a.06.06,0,1,1,.053-.108l1.957.967a.06.06,0,0,1-.027.114Z" transform="translate(-638.815 -1195.009)" fill="#ffbb10" stroke="#ffbb10" stroke-width="1"/>
            <path id="Path_3599" data-name="Path 3599" d="M618.285,1186.462a.06.06,0,0,1-.026-.006l-1.034-.511.652-.951a.06.06,0,1,1,.1.068l-.574.837.91.45a.06.06,0,0,1-.027.114Z" transform="translate(-617.224 -1177.917)" fill="#ffbb10" stroke="#ffbb10" stroke-width="1"/>
            <path id="Path_3600" data-name="Path 3600" d="M634.294,1153.079a.06.06,0,0,1-.05-.094l1.407-2.052a.06.06,0,0,1,.1.068l-1.407,2.052A.06.06,0,0,1,634.294,1153.079Z" transform="translate(-632.184 -1147.961)" fill="#ffbb10" stroke="#ffbb10" stroke-width="1"/>
            <path id="Path_3601" data-name="Path 3601" d="M657.654,1127.47a.06.06,0,0,1-.034-.01.061.061,0,0,1-.016-.084l.613-.894a.06.06,0,1,1,.1.068l-.613.894A.059.059,0,0,1,657.654,1127.47Z" transform="translate(-652.73 -1126.455)" fill="#ffbb10" stroke="#ffbb10" stroke-width="1"/>
          </g>
          <g id="Group_774" data-name="Group 774" transform="translate(11.757 68.486)">
            <path id="Path_3602" data-name="Path 3602" d="M883.782,1324.051a.061.061,0,0,1-.027-.006l-.972-.48a.06.06,0,1,1,.053-.108l.972.48a.06.06,0,0,1-.027.114Z" transform="translate(-862.516 -1313.454)" fill="#ffbb10" stroke="#ffbb10" stroke-width="1"/>
            <path id="Path_3603" data-name="Path 3603" d="M755.682,1260.765a.058.058,0,0,1-.027-.006l-2.14-1.057a.06.06,0,1,1,.053-.108l2.14,1.057a.06.06,0,0,1-.027.114Zm-4.28-2.115a.058.058,0,0,1-.027-.006l-2.14-1.057a.06.06,0,1,1,.053-.108l2.14,1.057a.06.06,0,0,1-.027.114Zm-4.28-2.115a.058.058,0,0,1-.027-.006l-2.14-1.057a.06.06,0,0,1,.053-.108l2.14,1.057a.06.06,0,0,1-.027.114Zm-4.28-2.115a.061.061,0,0,1-.027-.006l-2.14-1.058a.06.06,0,1,1,.053-.108l2.14,1.057a.06.06,0,0,1-.027.115Z" transform="translate(-737.529 -1251.706)" fill="#ffbb10" stroke="#ffbb10" stroke-width="1"/>
            <path id="Path_3604" data-name="Path 3604" d="M715.841,1241.082a.06.06,0,0,1-.027-.006l-.972-.48a.06.06,0,0,1,.053-.108l.972.48a.06.06,0,0,1-.027.114Z" transform="translate(-714.808 -1240.481)" fill="#ffbb10" stroke="#ffbb10" stroke-width="1"/>
          </g>
          <path id="Path_3605" data-name="Path 3605" d="M899.55,1320.929l-9.782-4.833.374-.756,9.409,4.648,12.032-5.944.373.756Z" transform="translate(-856.932 -1236.695)" fill="#ffbb10" stroke="#ffbb10" stroke-width="1"/>
          <rect id="Rectangle_1699" data-name="Rectangle 1699" width="17.224" height="0.843" transform="translate(60.881 74.27) rotate(-26.29)" fill="#ffbb10" stroke="#ffbb10" stroke-width="1"/>
          <path id="Path_3606" data-name="Path 3606" d="M1233.758,1076.059a.06.06,0,0,1-.027-.114l1.944-.96a.06.06,0,0,1,.081.027.06.06,0,0,1-.027.081l-1.944.96A.059.059,0,0,1,1233.758,1076.059Zm3.888-1.921a.059.059,0,0,1-.054-.033.06.06,0,0,1,.027-.081l1.944-.961a.06.06,0,1,1,.053.108l-1.944.961A.063.063,0,0,1,1237.646,1074.138Zm3.257-2.086a.06.06,0,0,1-.05-.026l-1.227-1.788a.06.06,0,0,1,.1-.068l1.227,1.788a.061.061,0,0,1-.016.084A.057.057,0,0,1,1240.9,1072.052Zm-2.453-3.577a.06.06,0,0,1-.05-.026l-1.227-1.788a.06.06,0,0,1,.1-.068l1.227,1.788a.06.06,0,0,1-.016.084A.059.059,0,0,1,1238.45,1068.475ZM1236,1064.9a.06.06,0,0,1-.05-.026l-1.227-1.788a.06.06,0,1,1,.1-.068l1.227,1.788a.06.06,0,0,1-.05.094Zm-2.453-3.577a.061.061,0,0,1-.05-.026l-1.227-1.788a.06.06,0,0,1,.1-.068l1.227,1.788a.06.06,0,0,1-.016.084A.061.061,0,0,1,1233.544,1061.322Zm-2.453-3.577a.06.06,0,0,1-.05-.026l-1.227-1.788a.061.061,0,0,1,.016-.084.06.06,0,0,1,.084.016l1.227,1.788a.061.061,0,0,1-.015.084A.06.06,0,0,1,1231.09,1057.745Z" transform="translate(-1156 -1009.596)" fill="#ffbb10" stroke="#ffbb10" stroke-width="1"/>
          <path id="Path_3607" data-name="Path 3607" d="M1077.5,833.819a.06.06,0,0,1-.05-.026L1076.228,832a.06.06,0,1,1,.1-.068l1.227,1.788a.06.06,0,0,1-.05.094Zm-2.453-3.577a.061.061,0,0,1-.05-.026l-1.226-1.788a.06.06,0,1,1,.1-.068l1.227,1.788a.06.06,0,0,1-.05.094Zm-2.453-3.577a.06.06,0,0,1-.05-.026l-1.227-1.788a.06.06,0,0,1,.1-.068l1.226,1.788a.06.06,0,0,1-.05.094Zm-2.453-3.577a.06.06,0,0,1-.05-.026l-1.227-1.788a.06.06,0,1,1,.1-.068l1.227,1.788a.06.06,0,0,1-.05.094Zm-2.453-3.577a.06.06,0,0,1-.05-.026l-1.227-1.788a.06.06,0,1,1,.1-.068l1.227,1.788a.06.06,0,0,1-.05.094Zm-2.453-3.577a.06.06,0,0,1-.05-.026l-1.227-1.788a.06.06,0,1,1,.1-.068l1.227,1.788a.06.06,0,0,1-.016.084A.06.06,0,0,1,1065.238,815.935Zm-2.453-3.577a.059.059,0,0,1-.05-.026l-1.227-1.788a.06.06,0,0,1,.1-.068l1.226,1.788a.06.06,0,0,1-.05.094Zm-2.453-3.577a.06.06,0,0,1-.05-.026l-1.227-1.788a.06.06,0,0,1,.1-.068l1.227,1.788a.06.06,0,0,1-.016.084A.06.06,0,0,1,1060.332,808.781Zm-2.453-3.577a.06.06,0,0,1-.05-.026l-1.227-1.788a.06.06,0,0,1,.1-.068l1.227,1.788a.061.061,0,0,1-.016.084A.06.06,0,0,1,1057.878,805.2Z" transform="translate(-1003.657 -787.481)" fill="#ffbb10" stroke="#ffbb10" stroke-width="1"/>
          <path id="Path_3608" data-name="Path 3608" d="M875.483,689.4l-.7-.477,11.587-16.894L897.1,687.67l-.7.477-10.029-14.622Z" transform="translate(-843.757 -672.034)" fill="#ffbb10" stroke="#ffbb10" stroke-width="1"/>
          <rect id="Rectangle_1700" data-name="Rectangle 1700" width="20.017" height="0.843" transform="translate(12.676 43.656) rotate(-55.557)" fill="#ffbb10" stroke="#ffbb10" stroke-width="1"/>
          <rect id="Rectangle_1701" data-name="Rectangle 1701" width="13.235" height="0.843" transform="translate(5.19 54.57) rotate(-55.557)" fill="#ffbb10" stroke="#ffbb10" stroke-width="1"/>
        </g>
        <path id="Path_3609" data-name="Path 3609" d="M715.7,821.614l-.133-.066-34.832-17.209L715.7,753.36l34.966,50.979Zm-34.076-17.507L715.7,820.942l34.076-16.835L715.7,754.425Z" transform="translate(-661.074 -729.823)" fill="#ffbb10" stroke="#ffbb10" stroke-width="1" opacity="0.1"/>
        <path id="Path_3610" data-name="Path 3610" d="M762.474,872.755l-28.559-14.109.118-.172,28.441-41.467,28.559,41.638-.187.092Zm-28.025-14.249,28.025,13.846L790.5,858.506l-28.025-40.86Z" transform="translate(-707.844 -785.802)" fill="#ffbb10" stroke="#ffbb10" stroke-width="1" opacity="0.08"/>
        <path id="Path_3611" data-name="Path 3611" d="M813.141,928.158l-21.619-10.681,21.619-31.52,21.619,31.52Zm-21.085-10.82,21.085,10.417,21.085-10.417L813.141,886.6Z" transform="translate(-758.511 -846.446)" fill="#ffbb10" stroke="#ffbb10" stroke-width="1" opacity="0.06"/>
        <path id="Path_3612" data-name="Path 3612" d="M872.9,993.5l-13.432-6.636L872.9,967.284l13.432,19.584ZM860,986.729l12.9,6.372,12.9-6.372-12.9-18.806Z" transform="translate(-818.272 -917.974)" fill="#ffbb10" stroke="#ffbb10" stroke-width="1" opacity="0.04"/>
        <path id="Path_3613" data-name="Path 3613" d="M924.868,1050.328l-6.314-3.119,6.314-9.206,6.314,9.206Zm-6.136-3.166,6.136,3.031,6.136-3.031-6.136-8.946Z" transform="translate(-870.238 -980.173)" fill="#ffbb10" stroke="#ffbb10" stroke-width="1" opacity="0.03"/>
      </g>
    </g>
    <g id="Group_778" data-name="Group 778" transform="translate(546.208 571.735)">
      <path id="Path_3614" data-name="Path 3614" d="M782.412,672.345a25.7,25.7,0,0,1,1.768,4.74c.786,2.424,1.788,5.492,2.231,6.831l.8,2.432h14.62l.448.448a1.25,1.25,0,0,1,.226,1.667c-.124.178-2.828,2.21-6.008,4.516l-5.782,4.192.441,1.343c2.441,7.441,4.006,12.393,4.006,12.675a1.65,1.65,0,0,1-1.359,1.25c-.36,0-1.752-.935-6.229-4.184-3.165-2.3-5.85-4.217-5.951-4.257-.293-.115-1.625.9-1.434,1.092.093.094,4.136,2.979,9,6.422,5.28,3.738,8.908,6.408,9.024,6.638.15.3.193,2.987.193,12.081v11.695h3.937c4.122,0,4.678.08,4.922.71.053.136.1,1.891.1,3.914,0,3.474-.017,3.688-.317,4.076l-.316.409H756.4l-.378-.378-.378-.378.008-3.751c.005-2.7.061-3.821.2-4,.424-.555.8-.6,4.8-.6H764.6l.039-22.864.039-22.864.432-.371c.8-.684,1.173-.548,3.952,1.425a14.9,14.9,0,0,0,2.628,1.663,10.217,10.217,0,0,0,.629-1.7c0-.025-2.64-1.964-5.867-4.307s-5.936-4.393-6.021-4.554a1.27,1.27,0,0,1,.3-1.559l.442-.448h14.682l.64-1.976c3.528-10.9,3.883-11.924,4.208-12.148a1.451,1.451,0,0,1,1.714.122Zm-2.918,11.548a27.949,27.949,0,0,1-1.8,4.863c-.294.273-.718.3-6.013.37l-5.7.077,4.361,3.165c2.393,1.736,4.483,3.287,4.632,3.435a1.19,1.19,0,0,1,.27.726c0,.251-.759,2.794-1.69,5.666s-1.677,5.224-1.66,5.241,2.076-1.461,4.562-3.273c3.721-2.713,4.622-3.3,5.041-3.3.542,0,.71.113,6.747,4.519,1.59,1.161,2.9,2.074,2.9,2.019s-.766-2.447-1.7-5.3-1.7-5.339-1.7-5.5a1.3,1.3,0,0,1,.239-.633c.132-.183,2.223-1.777,4.647-3.543l4.408-3.211-5.612-.077c-4.076-.056-5.7-.13-5.952-.271-.4-.226-.517-.547-2.445-6.491l-1.523-4.693-.27.826c-.149.455-.936,2.879-1.752,5.4Zm-12.119,36.8v21.228h28.252V719.416l-8.962-6.345c-4.925-3.487-8.993-6.345-9.031-6.345s-1.613,1.125-3.5,2.5c-4.431,3.227-4.414,3.216-4.909,3.216a1.5,1.5,0,0,1-1.3-1.019c-.072-.288.317-1.683,1.374-4.925.81-2.486,1.474-4.558,1.474-4.6,0-.078-3.242-2.424-3.35-2.424-.025,0-.046,9.556-.046,21.228Zm-9.109,25.859v1.853h46.47V744.7h-46.47v1.853Z" transform="translate(-755.642 -672)" fill="#ffbc00"/>
    </g>
  </g>
</svg>
