<svg xmlns="http://www.w3.org/2000/svg" width="107.634" height="105.053" viewBox="0 0 107.634 105.053">
  <g id="Group_704" data-name="Group 704" transform="translate(-8572.965 -502.429)">
    <g id="Group_132" data-name="Group 132" transform="translate(8573.519 503.092)" opacity="0.12">
      <rect id="Rectangle_1601" data-name="Rectangle 1601" width="25.578" height="1.175" transform="matrix(0.566, -0.825, 0.825, 0.566, 12.441, 59.519)" fill="#ff572c" stroke="#ff572c" stroke-width="0.75"/>
      <path id="Path_367" data-name="Path 367" d="M8593.747,775.141l-20.229-9.994,5.974-8.709.969.664-5.207,7.592,19.014,9.393Z" transform="translate(-8573.519 -687.49)" fill="#ff572c" stroke="#ff572c" stroke-width="0.75"/>
      <path id="Path_368" data-name="Path 368" d="M8740.207,867.973l-10.854-5.362.521-1.053,10.333,5.1,9.877-4.879.52,1.053Z" transform="translate(-8686.943 -764.001)" fill="#ff572c" stroke="#ff572c" stroke-width="0.75"/>
      <path id="Path_369" data-name="Path 369" d="M8921.612,748.449l-.521-1.053,8.731-4.313-10.75-15.672.969-.664,11.516,16.79Z" transform="translate(-8825.031 -665.878)" fill="#ff572c" stroke="#ff572c" stroke-width="0.75"/>
      <path id="Path_370" data-name="Path 370" d="M8726.447,521.118l-.97-.664,11.908-17.362,11.673,17.019-.969.664-10.7-15.607Z" transform="translate(-8684.121 -503.092)" fill="#ff572c" stroke="#ff572c" stroke-width="0.75"/>
      <rect id="Rectangle_1602" data-name="Rectangle 1602" width="1.175" height="27.842" transform="matrix(0.443, -0.897, 0.897, 0.443, 19.136, 82.788)" fill="#ff572c" stroke="#ff572c" stroke-width="0.75"/>
      <path id="Path_371" data-name="Path 371" d="M8902.244,746.237l-.521-1.053,9.165-4.528-9.963-14.526.969-.664,10.729,15.643Z" transform="translate(-8811.822 -664.947)" fill="#ff572c" stroke="#ff572c" stroke-width="0.75"/>
      <rect id="Rectangle_1603" data-name="Rectangle 1603" width="1.175" height="43.819" transform="matrix(0.825, -0.566, 0.566, 0.825, 64.319, 25.048)" fill="#ff572c" stroke="#ff572c" stroke-width="0.75"/>
      <g id="Group_131" data-name="Group 131" transform="translate(11.712 13.395)">
        <g id="Group_129" data-name="Group 129" transform="translate(0 53.379)">
          <path id="Path_372" data-name="Path 372" d="M8656.2,796.528a.053.053,0,0,1-.026-.006l-.948-.468a.059.059,0,0,1,.052-.105l.949.468a.06.06,0,0,1,.025.079A.058.058,0,0,1,8656.2,796.528Z" transform="translate(-8644.675 -783.017)" fill="#ff572c" stroke="#ff572c" stroke-width="0.75"/>
          <path id="Path_373" data-name="Path 373" d="M8632.931,785.035a.063.063,0,0,1-.026-.006l-1.907-.943a.059.059,0,0,1,.052-.105l1.908.943a.059.059,0,0,1-.026.112Zm-3.815-1.885a.058.058,0,0,1-.026-.006l-1.908-.942a.059.059,0,0,1-.025-.079.058.058,0,0,1,.078-.026l1.908.943a.059.059,0,0,1-.026.111Z" transform="translate(-8624.266 -772.934)" fill="#ff572c" stroke="#ff572c" stroke-width="0.75"/>
          <path id="Path_374" data-name="Path 374" d="M8617.587,775.16a.061.061,0,0,1-.026-.006l-1.008-.5.637-.928a.059.059,0,0,1,.082-.015.061.061,0,0,1,.015.082l-.56.816.887.438a.059.059,0,0,1-.026.112Z" transform="translate(-8616.553 -766.829)" fill="#ff572c" stroke="#ff572c" stroke-width="0.75"/>
          <path id="Path_375" data-name="Path 375" d="M8623.954,761.119a.056.056,0,0,1-.033-.01.06.06,0,0,1-.016-.082l1.372-2a.059.059,0,0,1,.1.066l-1.373,2A.057.057,0,0,1,8623.954,761.119Z" transform="translate(-8621.897 -756.129)" fill="#ff572c" stroke="#ff572c" stroke-width="0.75"/>
          <path id="Path_376" data-name="Path 376" d="M8634.036,749.437a.057.057,0,0,1-.032-.01.059.059,0,0,1-.017-.082l.6-.872a.058.058,0,0,1,.081-.015.057.057,0,0,1,.016.081l-.6.872A.059.059,0,0,1,8634.036,749.437Z" transform="translate(-8629.235 -748.448)" fill="#ff572c" stroke="#ff572c" stroke-width="0.75"/>
        </g>
        <g id="Group_130" data-name="Group 130" transform="translate(11.463 66.773)">
          <path id="Path_377" data-name="Path 377" d="M8732.165,834.06a.058.058,0,0,1-.026-.006l-.948-.468a.06.06,0,0,1-.026-.079.059.059,0,0,1,.079-.026l.947.468a.058.058,0,0,1,.026.079A.057.057,0,0,1,8732.165,834.06Z" transform="translate(-8711.431 -823.728)" fill="#ff572c" stroke="#ff572c" stroke-width="0.75"/>
          <path id="Path_378" data-name="Path 378" d="M8684.487,810.505a.056.056,0,0,1-.026-.006l-2.087-1.031a.059.059,0,0,1,.052-.105l2.087,1.031a.058.058,0,0,1,.026.079A.059.059,0,0,1,8684.487,810.505Zm-4.174-2.062a.05.05,0,0,1-.025-.006l-2.087-1.031a.059.059,0,0,1-.027-.079.06.06,0,0,1,.079-.027l2.086,1.031a.058.058,0,0,1,.026.079A.057.057,0,0,1,8680.313,808.443Zm-4.174-2.061a.058.058,0,0,1-.025-.006l-2.087-1.031a.059.059,0,0,1-.026-.079.058.058,0,0,1,.078-.026l2.087,1.031a.059.059,0,0,1,.026.079A.057.057,0,0,1,8676.14,806.382Zm-4.173-2.062a.063.063,0,0,1-.026-.006l-2.086-1.031a.059.059,0,1,1,.052-.105l2.086,1.031a.058.058,0,0,1-.025.111Z" transform="translate(-8666.787 -801.672)" fill="#ff572c" stroke="#ff572c" stroke-width="0.75"/>
          <path id="Path_379" data-name="Path 379" d="M8659.678,798.249a.052.052,0,0,1-.024-.006l-.949-.468a.06.06,0,0,1-.026-.078.058.058,0,0,1,.079-.027l.947.468a.059.059,0,0,1-.026.111Z" transform="translate(-8658.672 -797.663)" fill="#ff572c" stroke="#ff572c" stroke-width="0.75"/>
        </g>
        <path id="Path_380" data-name="Path 380" d="M8743.726,836.127l-9.537-4.712.365-.737,9.172,4.532,11.731-5.8.364.737Z" transform="translate(-8702.174 -754)" fill="#ff572c" stroke="#ff572c" stroke-width="0.75"/>
        <rect id="Rectangle_1604" data-name="Rectangle 1604" width="16.793" height="0.822" transform="translate(59.358 72.412) rotate(-26.29)" fill="#ff572c" stroke="#ff572c" stroke-width="0.75"/>
        <path id="Path_381" data-name="Path 381" d="M8884.809,737.684a.059.059,0,0,1-.053-.033.058.058,0,0,1,.027-.079l1.895-.936a.059.059,0,0,1,.079.027.058.058,0,0,1-.026.079l-1.9.936A.061.061,0,0,1,8884.809,737.684Zm3.791-1.873a.06.06,0,0,1-.053-.033.058.058,0,0,1,.027-.079l1.9-.937a.059.059,0,0,1,.052.105l-1.9.937A.062.062,0,0,1,8888.6,735.811Zm3.176-2.034a.058.058,0,0,1-.048-.026l-1.2-1.744a.059.059,0,1,1,.1-.066l1.2,1.744a.06.06,0,0,1-.016.082A.056.056,0,0,1,8891.775,733.777Zm-2.392-3.487a.059.059,0,0,1-.049-.026l-1.2-1.744a.06.06,0,0,1,.016-.082.058.058,0,0,1,.081.015l1.2,1.744a.059.059,0,0,1-.016.082A.056.056,0,0,1,8889.384,730.29Zm-2.393-3.487a.059.059,0,0,1-.048-.025l-1.2-1.744a.058.058,0,1,1,.1-.066l1.2,1.743a.059.059,0,0,1-.016.082A.056.056,0,0,1,8886.991,726.8Zm-2.392-3.487a.057.057,0,0,1-.048-.025l-1.2-1.744a.058.058,0,0,1,.016-.082.059.059,0,0,1,.082.015l1.2,1.744a.058.058,0,0,1-.016.081A.056.056,0,0,1,8884.6,723.315Zm-2.392-3.487a.06.06,0,0,1-.049-.026l-1.2-1.744a.059.059,0,0,1,.015-.082.058.058,0,0,1,.081.015l1.2,1.744a.058.058,0,0,1-.048.092Z" transform="translate(-8808.997 -672.884)" fill="#ff572c" stroke="#ff572c" stroke-width="0.75"/>
        <path id="Path_382" data-name="Path 382" d="M8826.581,638.725a.06.06,0,0,1-.049-.025l-1.2-1.744a.057.057,0,0,1,.016-.082.058.058,0,0,1,.081.015l1.2,1.744a.059.059,0,0,1-.016.082A.061.061,0,0,1,8826.581,638.725Zm-2.392-3.487a.059.059,0,0,1-.049-.026l-1.2-1.744a.059.059,0,0,1,.015-.082.059.059,0,0,1,.082.015l1.2,1.744a.059.059,0,0,1-.015.082A.063.063,0,0,1,8824.189,635.238Zm-2.393-3.487a.061.061,0,0,1-.049-.026l-1.2-1.744a.059.059,0,0,1,.016-.082.058.058,0,0,1,.081.015l1.2,1.744a.059.059,0,0,1-.015.082A.057.057,0,0,1,8821.8,631.751Zm-2.392-3.487a.057.057,0,0,1-.048-.026l-1.2-1.744a.059.059,0,0,1,.1-.066l1.2,1.744a.058.058,0,0,1-.048.092Zm-2.392-3.487a.06.06,0,0,1-.049-.026l-1.2-1.744a.058.058,0,0,1,.015-.081.059.059,0,0,1,.082.015l1.2,1.744a.06.06,0,0,1-.016.082A.056.056,0,0,1,8817.014,624.776Zm-2.392-3.487a.057.057,0,0,1-.049-.026l-1.2-1.743a.059.059,0,0,1,.016-.082.058.058,0,0,1,.081.015l1.2,1.743a.058.058,0,0,1-.048.092Zm-2.393-3.487a.058.058,0,0,1-.048-.025l-1.2-1.744a.059.059,0,0,1,.1-.066l1.2,1.743a.059.059,0,0,1-.016.082A.056.056,0,0,1,8812.229,617.8Zm-2.391-3.487a.057.057,0,0,1-.049-.025l-1.2-1.744a.06.06,0,0,1,.016-.082.059.059,0,0,1,.082.015l1.2,1.744a.059.059,0,0,1-.016.082A.057.057,0,0,1,8809.839,614.314Zm-2.394-3.487a.06.06,0,0,1-.048-.026l-1.2-1.744a.059.059,0,0,1,.016-.082.057.057,0,0,1,.081.015l1.2,1.744a.059.059,0,0,1-.015.082A.064.064,0,0,1,8807.445,610.827Z" transform="translate(-8754.581 -593.547)" fill="#ff572c" stroke="#ff572c" stroke-width="0.75"/>
        <path id="Path_383" data-name="Path 383" d="M8728.4,569.247l-.679-.465,11.3-16.471,10.456,15.245-.677.465-9.779-14.256Z" transform="translate(-8697.466 -552.311)" fill="#ff572c" stroke="#ff572c" stroke-width="0.75"/>
        <rect id="Rectangle_1605" data-name="Rectangle 1605" width="19.516" height="0.822" transform="translate(12.359 42.564) rotate(-55.557)" fill="#ff572c" stroke="#ff572c" stroke-width="0.75"/>
        <rect id="Rectangle_1606" data-name="Rectangle 1606" width="12.904" height="0.822" transform="translate(5.06 53.205) rotate(-55.557)" fill="#ff572c" stroke="#ff572c" stroke-width="0.75"/>
      </g>
      <path id="Path_384" data-name="Path 384" d="M8678.06,653.959l-.13-.064-33.962-16.778,34.092-49.7,34.091,49.7Zm-33.224-17.069L8678.06,653.3l33.223-16.414-33.223-48.439Z" transform="translate(-8624.795 -564.465)" fill="#ff572c" stroke="#ff572c" stroke-width="0.75" opacity="0.1"/>
      <path id="Path_385" data-name="Path 385" d="M8694.764,669.237l-27.845-13.756.115-.168,27.729-40.429,27.845,40.6-.183.09Zm-27.324-13.892,27.324,13.5,27.324-13.5-27.324-39.838Z" transform="translate(-8641.5 -584.46)" fill="#ff572c" stroke="#ff572c" stroke-width="0.75" opacity="0.08"/>
      <path id="Path_386" data-name="Path 386" d="M8712.861,685.789l-21.078-10.413,21.078-30.731,21.077,30.731ZM8692.3,675.239l20.557,10.156,20.557-10.156-20.557-29.972Z" transform="translate(-8659.598 -606.121)" fill="#ff572c" stroke="#ff572c" stroke-width="0.75" opacity="0.06"/>
      <path id="Path_387" data-name="Path 387" d="M8734.208,705.31l-13.1-6.47,13.1-19.094,13.1,19.094Zm-12.576-6.606,12.576,6.213,12.576-6.213-12.576-18.336Z" transform="translate(-8680.944 -631.67)" fill="#ff572c" stroke="#ff572c" stroke-width="0.75" opacity="0.04"/>
      <path id="Path_388" data-name="Path 388" d="M8752.77,722.287l-6.156-3.041,6.156-8.975,6.155,8.975Zm-5.982-3.087,5.982,2.956,5.981-2.956-5.981-8.722Z" transform="translate(-8699.506 -653.886)" fill="#ff572c" stroke="#ff572c" stroke-width="0.75" opacity="0.03"/>
    </g>
    <g id="Group_134" data-name="Group 134" transform="translate(8608.789 533.402)">
      <path id="Path_389" data-name="Path 389" d="M8705.078,622.294H8736.4v4.842h1.956v-7.779a4.9,4.9,0,0,0-4.895-4.894h-25.45a4.9,4.9,0,0,0-4.895,4.894v7.636h1.959Zm0-2.936a2.939,2.939,0,0,1,2.936-2.937h25.45a2.941,2.941,0,0,1,2.938,2.937v.979h-31.324Z" transform="translate(-8703.119 -614.463)" fill="#ff572c"/>
      <path id="Path_390" data-name="Path 390" d="M8736.4,777.653v3.915h-31.324v-4.762h-1.959v9.656a4.9,4.9,0,0,0,4.895,4.895h25.45a4.9,4.9,0,0,0,4.895-4.895v-9.656H8736.4Zm0,8.81a2.941,2.941,0,0,1-2.938,2.937h-25.45a2.939,2.939,0,0,1-2.936-2.937v-2.936H8736.4Z" transform="translate(-8703.119 -732.625)" fill="#ff572c"/>
      <rect id="Rectangle_1607" data-name="Rectangle 1607" width="1.958" height="1.958" transform="translate(16.641 52.859)" fill="#ff572c"/>
      <g id="Group_133" data-name="Group 133" transform="translate(0.06 15.728)">
        <path id="Path_391" data-name="Path 391" d="M8703.339,677.182V692.34a5.059,5.059,0,0,0,5.053,5.052h8.46l7.26,4.84a1.263,1.263,0,0,0,1.964-1.051v-3.789h7.579a5.058,5.058,0,0,0,5.052-5.052V677.182a5.06,5.06,0,0,0-3.936-4.926h-27.5A5.061,5.061,0,0,0,8703.339,677.182Zm32.841,0V692.34a2.529,2.529,0,0,1-2.525,2.526h-8.842a1.263,1.263,0,0,0-1.264,1.263v2.692l-5.614-3.743a1.27,1.27,0,0,0-.7-.212h-8.841a2.529,2.529,0,0,1-2.526-2.526V677.182a2.529,2.529,0,0,1,2.526-2.526h25.263A2.528,2.528,0,0,1,8736.18,677.182Z" transform="translate(-8703.339 -672.256)" fill="#ff572c"/>
        <path id="Path_392" data-name="Path 392" d="M8750.38,707.46a1.264,1.264,0,0,0,1.262,0l8.841-5.052a1.262,1.262,0,0,0,0-2.193l-8.841-5.052a1.264,1.264,0,0,0-1.891,1.1v10.1A1.264,1.264,0,0,0,8750.38,707.46Zm1.9-9.021,5.033,2.876-5.033,2.876Z" transform="translate(-8737.12 -688.81)" fill="#ff572c"/>
      </g>
    </g>
  </g>
</svg>
