<svg xmlns="http://www.w3.org/2000/svg" width="107.974" height="105.385" viewBox="0 0 107.974 105.385">
  <g id="Group_702" data-name="Group 702" transform="translate(-4741.035 -487.41)">
    <g id="Group_113" data-name="Group 113" transform="translate(4741.588 488.073)" opacity="0.12">
      <rect id="Rectangle_1588" data-name="Rectangle 1588" width="25.66" height="1.178" transform="matrix(0.566, -0.825, 0.825, 0.566, 12.48, 59.709)" fill="#f93082" stroke="#f93082" stroke-width="0.75"/>
      <path id="Path_295" data-name="Path 295" d="M4761.881,770.141l-20.293-10.025,5.992-8.737.972.667-5.223,7.616,19.073,9.423Z" transform="translate(-4741.588 -682.211)" fill="#f93082" stroke="#f93082" stroke-width="0.75"/>
      <path id="Path_296" data-name="Path 296" d="M4914.437,867.067l-10.888-5.379.522-1.056,10.366,5.121,9.908-4.895.522,1.057Z" transform="translate(-4861.004 -762.764)" fill="#f93082" stroke="#f93082" stroke-width="0.75"/>
      <path id="Path_297" data-name="Path 297" d="M5103.276,742.292l-.522-1.057,8.758-4.327-10.784-15.722.972-.667,11.552,16.843Z" transform="translate(-5006.386 -659.458)" fill="#f93082" stroke="#f93082" stroke-width="0.75"/>
      <path id="Path_298" data-name="Path 298" d="M4900.494,506.156l-.972-.667,11.946-17.417,11.71,17.073-.972.667-10.738-15.656Z" transform="translate(-4858.034 -488.073)" fill="#f93082" stroke="#f93082" stroke-width="0.75"/>
      <rect id="Rectangle_1589" data-name="Rectangle 1589" width="1.178" height="27.93" transform="matrix(0.443, -0.897, 0.897, 0.443, 19.197, 83.052)" fill="#f93082" stroke="#f93082" stroke-width="0.75"/>
      <path id="Path_299" data-name="Path 299" d="M5083.188,740.027l-.522-1.057,9.194-4.542-9.994-14.572.971-.667,10.765,15.693Z" transform="translate(-4992.478 -658.477)" fill="#f93082" stroke="#f93082" stroke-width="0.75"/>
      <rect id="Rectangle_1590" data-name="Rectangle 1590" width="1.178" height="43.958" transform="matrix(0.825, -0.566, 0.566, 0.825, 64.524, 25.128)" fill="#f93082" stroke="#f93082" stroke-width="0.75"/>
      <g id="Group_112" data-name="Group 112" transform="translate(11.749 13.438)">
        <g id="Group_110" data-name="Group 110" transform="translate(0 53.549)">
          <path id="Path_300" data-name="Path 300" d="M4827.479,793.024a.056.056,0,0,1-.025-.006l-.951-.47a.059.059,0,1,1,.052-.106l.95.47a.059.059,0,0,1,.028.079A.061.061,0,0,1,4827.479,793.024Z" transform="translate(-4815.922 -779.469)" fill="#f93082" stroke="#f93082" stroke-width="0.75"/>
          <path id="Path_301" data-name="Path 301" d="M4803.128,780.993a.056.056,0,0,1-.026-.006l-1.914-.945a.059.059,0,1,1,.053-.106l1.914.945a.059.059,0,0,1,.026.079A.058.058,0,0,1,4803.128,780.993ZM4799.3,779.1a.056.056,0,0,1-.026-.006l-1.914-.945a.059.059,0,0,1-.027-.079.06.06,0,0,1,.08-.026l1.914.945a.059.059,0,0,1,.027.079A.058.058,0,0,1,4799.3,779.1Z" transform="translate(-4794.434 -768.854)" fill="#f93082" stroke="#f93082" stroke-width="0.75"/>
          <path id="Path_302" data-name="Path 302" d="M4787.353,770.784a.058.058,0,0,1-.026-.006l-1.012-.5.638-.931a.059.059,0,1,1,.1.067l-.561.819.89.439a.059.059,0,0,1-.026.112Z" transform="translate(-4786.315 -762.427)" fill="#f93082" stroke="#f93082" stroke-width="0.75"/>
          <path id="Path_303" data-name="Path 303" d="M4794,756.167a.059.059,0,0,1-.049-.092l1.377-2.007a.06.06,0,0,1,.083-.015.06.06,0,0,1,.015.082l-1.376,2.007A.06.06,0,0,1,4794,756.167Z" transform="translate(-4791.939 -751.161)" fill="#f93082" stroke="#f93082" stroke-width="0.75"/>
          <path id="Path_304" data-name="Path 304" d="M4804.483,744.067a.063.063,0,0,1-.034-.01.06.06,0,0,1-.015-.082l.6-.875a.059.059,0,0,1,.1.066l-.6.875A.06.06,0,0,1,4804.483,744.067Z" transform="translate(-4799.667 -743.074)" fill="#f93082" stroke="#f93082" stroke-width="0.75"/>
        </g>
        <g id="Group_111" data-name="Group 111" transform="translate(11.499 66.986)">
          <path id="Path_305" data-name="Path 305" d="M4906.436,832.031a.062.062,0,0,1-.026-.006l-.951-.47a.059.059,0,1,1,.052-.106l.951.47a.059.059,0,0,1,.027.079A.06.06,0,0,1,4906.436,832.031Z" transform="translate(-4885.636 -821.666)" fill="#f93082" stroke="#f93082" stroke-width="0.75"/>
          <path id="Path_306" data-name="Path 306" d="M4856.389,807.306a.059.059,0,0,1-.026-.006l-2.093-1.034a.059.059,0,0,1,.052-.106l2.094,1.034a.059.059,0,0,1-.026.112Zm-4.187-2.068a.06.06,0,0,1-.025-.006l-2.093-1.034a.059.059,0,1,1,.052-.106l2.093,1.034a.059.059,0,0,1-.027.112Zm-4.186-2.068a.062.062,0,0,1-.027-.006l-2.093-1.034a.059.059,0,0,1,.052-.106l2.093,1.034a.059.059,0,0,1-.026.112Zm-4.187-2.068a.064.064,0,0,1-.026-.006l-2.093-1.034a.059.059,0,1,1,.052-.106l2.093,1.034a.059.059,0,0,1-.026.112Z" transform="translate(-4838.634 -798.446)" fill="#f93082" stroke="#f93082" stroke-width="0.75"/>
          <path id="Path_307" data-name="Path 307" d="M4831.1,794.812a.062.062,0,0,1-.026-.006l-.951-.47a.06.06,0,0,1-.026-.079.058.058,0,0,1,.079-.027l.951.47a.059.059,0,0,1-.026.112Z" transform="translate(-4830.09 -794.225)" fill="#f93082" stroke="#f93082" stroke-width="0.75"/>
        </g>
        <path id="Path_308" data-name="Path 308" d="M4918.141,833.958l-9.567-4.727.365-.74,9.2,4.546,11.768-5.814.365.74Z" transform="translate(-4876.457 -751.57)" fill="#f93082" stroke="#f93082" stroke-width="0.75"/>
        <rect id="Rectangle_1591" data-name="Rectangle 1591" width="16.846" height="0.825" transform="translate(59.547 72.643) rotate(-26.29)" fill="#f93082" stroke="#f93082" stroke-width="0.75"/>
        <path id="Path_309" data-name="Path 309" d="M5064.977,731.176a.059.059,0,0,1-.025-.112l1.9-.94a.059.059,0,0,1,.052.106l-1.9.94A.061.061,0,0,1,5064.977,731.176Zm3.8-1.879a.06.06,0,0,1-.053-.033.059.059,0,0,1,.028-.079l1.9-.94a.059.059,0,1,1,.052.106l-1.9.94A.058.058,0,0,1,5068.78,729.3Zm3.186-2.04a.058.058,0,0,1-.048-.025l-1.2-1.749a.059.059,0,1,1,.1-.067l1.2,1.749a.06.06,0,0,1-.015.082A.062.062,0,0,1,5071.966,727.256Zm-2.4-3.5a.058.058,0,0,1-.048-.026l-1.2-1.749a.059.059,0,1,1,.1-.066l1.2,1.749a.059.059,0,0,1-.016.082A.057.057,0,0,1,5069.566,723.758Zm-2.4-3.5a.059.059,0,0,1-.049-.026l-1.2-1.749a.059.059,0,1,1,.1-.067l1.2,1.749a.059.059,0,0,1-.016.082A.057.057,0,0,1,5067.167,720.26Zm-2.4-3.5a.057.057,0,0,1-.048-.026l-1.2-1.749a.059.059,0,1,1,.1-.067l1.2,1.749a.059.059,0,0,1-.014.082A.06.06,0,0,1,5064.767,716.761Zm-2.4-3.5a.058.058,0,0,1-.048-.026l-1.2-1.749a.059.059,0,1,1,.1-.067l1.2,1.749a.058.058,0,0,1-.015.082A.06.06,0,0,1,5062.368,713.263Z" transform="translate(-4988.924 -666.168)" fill="#f93082" stroke="#f93082" stroke-width="0.75"/>
        <path id="Path_310" data-name="Path 310" d="M5003.863,627.963a.059.059,0,0,1-.049-.026l-1.2-1.749a.059.059,0,1,1,.1-.067l1.2,1.749a.059.059,0,0,1-.048.092Zm-2.4-3.5a.059.059,0,0,1-.049-.026l-1.2-1.749a.059.059,0,1,1,.1-.066l1.2,1.749a.058.058,0,0,1-.015.082A.057.057,0,0,1,5001.463,624.465Zm-2.4-3.5a.058.058,0,0,1-.048-.025l-1.2-1.749a.059.059,0,1,1,.1-.067l1.2,1.749a.06.06,0,0,1-.016.082A.056.056,0,0,1,4999.063,620.966Zm-2.4-3.5a.059.059,0,0,1-.048-.026l-1.2-1.749a.058.058,0,0,1,.015-.082.059.059,0,0,1,.082.015l1.2,1.749a.059.059,0,0,1-.016.082A.057.057,0,0,1,4996.664,617.468Zm-2.4-3.5a.061.061,0,0,1-.049-.026l-1.2-1.749a.059.059,0,0,1,.1-.067l1.2,1.749a.058.058,0,0,1-.016.082A.058.058,0,0,1,4994.265,613.97Zm-2.4-3.5a.061.061,0,0,1-.049-.026l-1.2-1.749a.059.059,0,0,1,.1-.066l1.2,1.749a.059.059,0,0,1-.015.082A.06.06,0,0,1,4991.866,610.471Zm-2.4-3.5a.058.058,0,0,1-.048-.026l-1.2-1.749a.059.059,0,0,1,.1-.067l1.2,1.749a.059.059,0,0,1-.015.082A.06.06,0,0,1,4989.466,606.973Zm-2.4-3.5a.058.058,0,0,1-.049-.026l-1.2-1.749a.059.059,0,1,1,.1-.067l1.2,1.749a.058.058,0,0,1-.015.082A.06.06,0,0,1,4987.067,603.474Zm-2.4-3.5a.06.06,0,0,1-.049-.026l-1.2-1.749a.059.059,0,1,1,.1-.067l1.2,1.749a.059.059,0,0,1-.048.092Z" transform="translate(-4931.634 -582.641)" fill="#f93082" stroke="#f93082" stroke-width="0.75"/>
        <path id="Path_311" data-name="Path 311" d="M4902.534,556.217l-.68-.466,11.333-16.524,10.49,15.293-.681.467-9.81-14.3Z" transform="translate(-4871.502 -539.227)" fill="#f93082" stroke="#f93082" stroke-width="0.75"/>
        <rect id="Rectangle_1592" data-name="Rectangle 1592" width="19.579" height="0.825" transform="translate(12.398 42.699) rotate(-55.557)" fill="#f93082" stroke="#f93082" stroke-width="0.75"/>
        <rect id="Rectangle_1593" data-name="Rectangle 1593" width="12.945" height="0.825" transform="translate(5.076 53.375) rotate(-55.557)" fill="#f93082" stroke="#f93082" stroke-width="0.75"/>
      </g>
      <path id="Path_312" data-name="Path 312" d="M4849.006,642.467l-.13-.065-34.069-16.831,34.2-49.862,34.2,49.862Zm-33.329-17.123,33.329,16.466,33.33-16.466-33.33-48.594Z" transform="translate(-4795.573 -552.688)" fill="#f93082" stroke="#f93082" stroke-width="0.75" opacity="0.1"/>
      <path id="Path_313" data-name="Path 313" d="M4866.594,658.787l-27.933-13.8.115-.168,27.818-40.558,27.934,40.726-.183.09Zm-27.411-13.937,27.411,13.543,27.412-13.543-27.412-39.965Z" transform="translate(-4813.161 -573.739)" fill="#f93082" stroke="#f93082" stroke-width="0.75" opacity="0.08"/>
      <path id="Path_314" data-name="Path 314" d="M4885.647,676.466,4864.5,666.019l21.145-30.829,21.146,30.829Zm-20.623-10.583,20.623,10.188,20.623-10.188-20.623-30.068Z" transform="translate(-4832.213 -596.544)" fill="#f93082" stroke="#f93082" stroke-width="0.75" opacity="0.06"/>
      <path id="Path_315" data-name="Path 315" d="M4908.122,697.318l-13.138-6.491,13.138-19.155,13.139,19.155Zm-12.616-6.627,12.616,6.233,12.616-6.233L4908.122,672.3Z" transform="translate(-4854.688 -623.442)" fill="#f93082" stroke="#f93082" stroke-width="0.75" opacity="0.04"/>
      <path id="Path_316" data-name="Path 316" d="M4927.663,715.451l-6.176-3.051,6.176-9,6.176,9Zm-6-3.1,6,2.965,6-2.965-6-8.75Z" transform="translate(-4874.229 -646.833)" fill="#f93082" stroke="#f93082" stroke-width="0.75" opacity="0.03"/>
    </g>
    <g id="Group_115" data-name="Group 115" transform="translate(4765.312 518.479)">
      <g id="Group_114" data-name="Group 114">
        <path id="Path_317" data-name="Path 317" d="M4886.888,611.678h-1.964V607.75a3.932,3.932,0,0,0-3.928-3.928h-39.28a3.932,3.932,0,0,0-3.928,3.928v3.928h-1.964a3.932,3.932,0,0,0-3.928,3.928v33.388a3.932,3.932,0,0,0,3.928,3.928h19.3l-2.356,7.856h-2.215v1.964h21.6v-1.964h-2.215l-2.357-7.856h19.3a3.932,3.932,0,0,0,3.928-3.928V615.606A3.932,3.932,0,0,0,4886.888,611.678Zm-53.028,3.928a1.966,1.966,0,0,1,1.964-1.964h1.964V643.1h1.964V607.75a1.966,1.966,0,0,1,1.964-1.964H4881a1.966,1.966,0,0,1,1.963,1.964V643.1h1.964v-29.46h1.964a1.966,1.966,0,0,1,1.964,1.964v29.46H4833.86Zm34.032,45.172H4854.82l2.357-7.856h8.358Zm20.96-11.784a1.966,1.966,0,0,1-1.964,1.964h-51.063a1.966,1.966,0,0,1-1.964-1.964V647.03h54.992Z" transform="translate(-4831.896 -603.822)" fill="#f93082"/>
      </g>
      <path id="Path_318" data-name="Path 318" d="M4875.466,652.748a4.482,4.482,0,0,0,1.863-.406l9.748,8.207a3.987,3.987,0,0,0-.625,2.134,4.354,4.354,0,0,0,8.7,0,3.943,3.943,0,0,0-.109-.91l7.151-3.165a4.443,4.443,0,0,0,2.89,1.058,4.158,4.158,0,1,0-4.35-4.154,3.954,3.954,0,0,0,.08.78l-7.231,3.2a4.451,4.451,0,0,0-2.78-.963,4.5,4.5,0,0,0-1.612.3l-9.872-8.311a3.971,3.971,0,0,0,.5-1.923,4.354,4.354,0,1,0-4.35,4.154Zm29.617,1.287a1.488,1.488,0,1,1,0,2.954,1.726,1.726,0,0,1-1.428-.713c-.016-.024-.031-.048-.048-.071a1.334,1.334,0,0,1-.2-.693A1.586,1.586,0,0,1,4905.083,654.035Zm-12.609,8.648a1.685,1.685,0,0,1-3.344,0,1.412,1.412,0,0,1,.6-1.131c.03-.019.06-.038.088-.06a1.812,1.812,0,0,1,.985-.286A1.586,1.586,0,0,1,4892.474,662.683Zm-17.008-15.566a1.585,1.585,0,0,1,1.672,1.477,1.392,1.392,0,0,1-.485,1.039c-.023.017-.045.035-.066.054a1.792,1.792,0,0,1-1.121.384,1.488,1.488,0,1,1,0-2.954Z" transform="translate(-4860.814 -633.77)" fill="#f93082"/>
    </g>
  </g>
</svg>
