<svg xmlns="http://www.w3.org/2000/svg" width="107.318" height="104.743" viewBox="0 0 107.318 104.743">
  <g id="Group_701" data-name="Group 701" transform="translate(-2788.965 -460.37)">
    <g id="Group_100" data-name="Group 100" transform="translate(2789.518 461.033)" opacity="0.12">
      <rect id="Rectangle_1582" data-name="Rectangle 1582" width="25.502" height="1.171" transform="matrix(0.566, -0.825, 0.825, 0.566, 12.404, 59.342)" fill="#fbba06" stroke="#fbba06" stroke-width="0.75"/>
      <path id="Path_260" data-name="Path 260" d="M2809.686,760.917l-20.168-9.964,5.956-8.683.966.662-5.191,7.569,18.957,9.365Z" transform="translate(-2789.518 -673.528)" fill="#fbba06" stroke="#fbba06" stroke-width="0.75"/>
      <path id="Path_261" data-name="Path 261" d="M2973.33,865.359l-10.821-5.346.519-1.05,10.3,5.09,9.847-4.865.519,1.05Z" transform="translate(-2920.224 -761.697)" fill="#fbba06" stroke="#fbba06" stroke-width="0.75"/>
      <path id="Path_262" data-name="Path 262" d="M3175.647,730.948l-.519-1.05,8.7-4.3-10.718-15.626.966-.662,11.482,16.74Z" transform="translate(-3079.352 -648.623)" fill="#fbba06" stroke="#fbba06" stroke-width="0.75"/>
      <path id="Path_263" data-name="Path 263" d="M2959.172,479.006l-.966-.662,11.873-17.31L2981.717,478l-.966.662-10.672-15.56Z" transform="translate(-2916.974 -461.033)" fill="#fbba06" stroke="#fbba06" stroke-width="0.75"/>
      <rect id="Rectangle_1583" data-name="Rectangle 1583" width="1.171" height="27.759" transform="matrix(0.443, -0.897, 0.897, 0.443, 19.079, 82.541)" fill="#fbba06" stroke="#fbba06" stroke-width="0.75"/>
      <path id="Path_264" data-name="Path 264" d="M3154.281,728.6l-.519-1.05,9.138-4.514-9.934-14.483.966-.662,10.7,15.6Z" transform="translate(-3064.129 -647.549)" fill="#fbba06" stroke="#fbba06" stroke-width="0.75"/>
      <rect id="Rectangle_1584" data-name="Rectangle 1584" width="1.171" height="43.688" transform="matrix(0.825, -0.566, 0.566, 0.825, 64.127, 24.973)" fill="#fbba06" stroke="#fbba06" stroke-width="0.75"/>
      <g id="Group_99" data-name="Group 99" transform="translate(11.677 13.355)">
        <g id="Group_97" data-name="Group 97" transform="translate(0 53.22)">
          <path id="Path_265" data-name="Path 265" d="M2881.184,786.708a.058.058,0,0,1-.026-.006l-.945-.467a.058.058,0,1,1,.052-.1l.945.467a.058.058,0,0,1,.026.078A.059.059,0,0,1,2881.184,786.708Z" transform="translate(-2869.697 -773.237)" fill="#fbba06" stroke="#fbba06" stroke-width="0.75"/>
          <path id="Path_266" data-name="Path 266" d="M2854.818,773.682a.058.058,0,0,1-.026-.006l-1.9-.94a.059.059,0,0,1,.052-.105l1.9.94a.058.058,0,0,1-.026.111Zm-3.8-1.879a.061.061,0,0,1-.026-.006l-1.9-.94a.059.059,0,0,1,.052-.105l1.9.94a.059.059,0,0,1-.026.111Z" transform="translate(-2846.178 -761.617)" fill="#fbba06" stroke="#fbba06" stroke-width="0.75"/>
          <path id="Path_267" data-name="Path 267" d="M2838.322,762.888a.058.058,0,0,1-.026-.006l-1.005-.5.634-.925a.059.059,0,0,1,.1.066l-.558.814.885.437a.058.058,0,0,1-.026.111Z" transform="translate(-2837.291 -754.582)" fill="#fbba06" stroke="#fbba06" stroke-width="0.75"/>
          <path id="Path_268" data-name="Path 268" d="M2845.5,747.227a.057.057,0,0,1-.033-.01.058.058,0,0,1-.015-.081l1.368-1.994a.059.059,0,0,1,.1.066l-1.368,1.994A.059.059,0,0,1,2845.5,747.227Z" transform="translate(-2843.448 -742.252)" fill="#fbba06" stroke="#fbba06" stroke-width="0.75"/>
          <path id="Path_269" data-name="Path 269" d="M2856.691,734.386a.058.058,0,0,1-.033-.01.059.059,0,0,1-.015-.081l.6-.869a.059.059,0,0,1,.1.066l-.6.869A.058.058,0,0,1,2856.691,734.386Z" transform="translate(-2851.905 -733.4)" fill="#fbba06" stroke="#fbba06" stroke-width="0.75"/>
        </g>
        <g id="Group_98" data-name="Group 98" transform="translate(11.429 66.574)">
          <path id="Path_270" data-name="Path 270" d="M2965.517,828.371a.056.056,0,0,1-.026-.006l-.945-.467a.059.059,0,0,1,.052-.105l.945.467a.059.059,0,0,1-.026.111Z" transform="translate(-2944.844 -818.07)" fill="#fbba06" stroke="#fbba06" stroke-width="0.75"/>
          <path id="Path_271" data-name="Path 271" d="M2911.045,801.461a.058.058,0,0,1-.026-.006l-2.08-1.028a.058.058,0,1,1,.052-.1l2.081,1.028a.059.059,0,0,1-.026.111Zm-4.161-2.056a.058.058,0,0,1-.026-.006l-2.08-1.028a.058.058,0,1,1,.052-.1l2.08,1.028a.058.058,0,0,1-.026.111Zm-4.161-2.056a.059.059,0,0,1-.026-.006l-2.081-1.028a.059.059,0,0,1,.052-.105l2.081,1.028a.059.059,0,0,1,.027.078A.059.059,0,0,1,2902.724,797.349Zm-4.161-2.055a.058.058,0,0,1-.026-.006l-2.081-1.028a.059.059,0,0,1,.052-.1l2.081,1.028a.059.059,0,0,1,.026.078A.058.058,0,0,1,2898.563,795.294Z" transform="translate(-2893.398 -792.654)" fill="#fbba06" stroke="#fbba06" stroke-width="0.75"/>
          <path id="Path_272" data-name="Path 272" d="M2885.05,788.618a.058.058,0,0,1-.026-.006l-.945-.467a.058.058,0,1,1,.052-.1l.945.467a.058.058,0,0,1,.027.078A.059.059,0,0,1,2885.05,788.618Z" transform="translate(-2884.046 -788.034)" fill="#fbba06" stroke="#fbba06" stroke-width="0.75"/>
        </g>
        <path id="Path_273" data-name="Path 273" d="M2977.385,829.973l-9.509-4.7.363-.735,9.146,4.518,11.7-5.778.363.735Z" transform="translate(-2935.957 -748.091)" fill="#fbba06" stroke="#fbba06" stroke-width="0.75"/>
        <rect id="Rectangle_1585" data-name="Rectangle 1585" width="16.743" height="0.82" transform="translate(59.181 72.196) rotate(-26.29)" fill="#fbba06" stroke="#fbba06" stroke-width="0.75"/>
        <path id="Path_274" data-name="Path 274" d="M3134.643,719.222a.059.059,0,0,1-.026-.111l1.89-.934a.058.058,0,0,1,.078.027.059.059,0,0,1-.026.078l-1.89.934A.058.058,0,0,1,3134.643,719.222Zm3.78-1.868a.059.059,0,0,1-.026-.111l1.89-.934a.058.058,0,1,1,.052.1l-1.89.934A.063.063,0,0,1,3138.422,717.355Zm3.166-2.028a.06.06,0,0,1-.048-.025l-1.192-1.739a.059.059,0,1,1,.1-.066l1.193,1.739a.058.058,0,0,1-.015.081A.056.056,0,0,1,3141.589,715.327Zm-2.385-3.477a.058.058,0,0,1-.049-.025l-1.192-1.738a.058.058,0,1,1,.1-.066l1.192,1.738a.059.059,0,0,1-.015.081A.06.06,0,0,1,3139.2,711.85Zm-2.385-3.477a.058.058,0,0,1-.048-.026l-1.193-1.738a.059.059,0,0,1,.1-.066l1.192,1.738a.058.058,0,0,1-.016.081A.057.057,0,0,1,3136.819,708.373Zm-2.385-3.477a.058.058,0,0,1-.048-.025l-1.192-1.738a.058.058,0,1,1,.1-.066l1.192,1.738a.059.059,0,0,1-.048.092Zm-2.385-3.477a.058.058,0,0,1-.048-.025l-1.192-1.738a.059.059,0,1,1,.1-.066l1.192,1.738a.059.059,0,0,1-.015.081A.058.058,0,0,1,3132.05,701.419Z" transform="translate(-3059.056 -654.615)" fill="#fbba06" stroke="#fbba06" stroke-width="0.75"/>
        <path id="Path_275" data-name="Path 275" d="M3068.136,608.234a.059.059,0,0,1-.049-.025l-1.192-1.739a.059.059,0,1,1,.1-.066l1.192,1.739a.059.059,0,0,1-.048.092Zm-2.385-3.477a.059.059,0,0,1-.048-.025l-1.192-1.738a.059.059,0,1,1,.1-.066l1.192,1.738a.059.059,0,0,1-.015.081A.056.056,0,0,1,3065.751,604.757Zm-2.385-3.477a.058.058,0,0,1-.048-.025l-1.192-1.738a.059.059,0,1,1,.1-.066l1.192,1.738a.059.059,0,0,1-.015.081A.06.06,0,0,1,3063.366,601.28Zm-2.385-3.477a.058.058,0,0,1-.048-.025l-1.192-1.738a.059.059,0,0,1,.1-.066l1.192,1.738a.059.059,0,0,1-.015.081A.057.057,0,0,1,3060.981,597.8Zm-2.385-3.477a.059.059,0,0,1-.048-.025l-1.192-1.739a.059.059,0,0,1,.1-.066l1.192,1.739a.058.058,0,0,1-.048.092Zm-2.385-3.477a.057.057,0,0,1-.048-.025l-1.192-1.738a.058.058,0,0,1,.1-.066l1.192,1.738a.058.058,0,0,1-.015.081A.058.058,0,0,1,3056.212,590.849Zm-2.385-3.477a.058.058,0,0,1-.048-.026l-1.192-1.738a.059.059,0,0,1,.1-.066l1.192,1.739a.059.059,0,0,1-.048.092Zm-2.385-3.477a.059.059,0,0,1-.048-.025l-1.192-1.738a.059.059,0,0,1,.1-.066l1.192,1.738a.059.059,0,0,1-.015.081A.057.057,0,0,1,3051.442,583.9Zm-2.384-3.477a.059.059,0,0,1-.049-.025l-1.192-1.738a.059.059,0,1,1,.1-.066l1.193,1.738a.058.058,0,0,1-.015.081A.057.057,0,0,1,3049.058,580.418Z" transform="translate(-2996.35 -563.19)" fill="#fbba06" stroke="#fbba06" stroke-width="0.75"/>
        <path id="Path_276" data-name="Path 276" d="M2961.374,532.556l-.676-.464,11.264-16.422,10.425,15.2-.676.464-9.749-14.214Z" transform="translate(-2930.533 -515.671)" fill="#fbba06" stroke="#fbba06" stroke-width="0.75"/>
        <rect id="Rectangle_1586" data-name="Rectangle 1586" width="19.458" height="0.82" transform="translate(12.322 42.437) rotate(-55.557)" fill="#fbba06" stroke="#fbba06" stroke-width="0.75"/>
        <rect id="Rectangle_1587" data-name="Rectangle 1587" width="12.866" height="0.82" transform="translate(5.045 53.047) rotate(-55.557)" fill="#fbba06" stroke="#fbba06" stroke-width="0.75"/>
      </g>
      <path id="Path_277" data-name="Path 277" d="M2901.712,620.985l-.13-.064-33.86-16.728,33.99-49.556,33.989,49.556Zm-33.125-17.018,33.125,16.365,33.124-16.365-33.124-48.295Z" transform="translate(-2848.607 -531.757)" fill="#fbba06" stroke="#fbba06" stroke-width="0.75" opacity="0.1"/>
      <path id="Path_278" data-name="Path 278" d="M2920.962,639.324,2893.2,625.609l.115-.167,27.647-40.309,27.762,40.476-.182.09Zm-27.243-13.851,27.243,13.459,27.243-13.459-27.243-39.719Z" transform="translate(-2867.857 -554.799)" fill="#fbba06" stroke="#fbba06" stroke-width="0.75" opacity="0.08"/>
      <path id="Path_279" data-name="Path 279" d="M2941.818,659.191,2920.8,648.809l21.015-30.64,21.015,30.64Zm-20.5-10.518,20.5,10.126,20.5-10.126-20.5-29.883Z" transform="translate(-2888.713 -579.76)" fill="#fbba06" stroke="#fbba06" stroke-width="0.75" opacity="0.06"/>
      <path id="Path_280" data-name="Path 280" d="M2966.416,682.623l-13.058-6.451,13.058-19.038,13.058,19.038Zm-12.539-6.586,12.539,6.195,12.539-6.195-12.539-18.281Z" transform="translate(-2913.311 -609.202)" fill="#fbba06" stroke="#fbba06" stroke-width="0.75" opacity="0.04"/>
      <path id="Path_281" data-name="Path 281" d="M2987.806,703l-6.138-3.032,6.138-8.949,6.138,8.949Zm-5.965-3.077,5.965,2.947,5.965-2.947-5.965-8.7Z" transform="translate(-2934.7 -634.803)" fill="#fbba06" stroke="#fbba06" stroke-width="0.75" opacity="0.03"/>
    </g>
    <g id="Group_106" data-name="Group 106" transform="translate(2820.083 491.253)">
      <g id="Group_102" data-name="Group 102" transform="translate(0 25.728)">
        <g id="Group_101" data-name="Group 101">
          <path id="Path_282" data-name="Path 282" d="M2955.975,722.752c-2.537,0-6.6-3.069-9.533-9.807a.843.843,0,1,1,1.547-.673c2.786,6.406,6.377,8.793,7.986,8.793a.555.555,0,0,0,.419-.217c.482-.5,1.321-2.2,1.519-7.885.133-3.813-.055-8.069-.192-11.177-.066-1.485-.117-2.657-.117-3.4A6.759,6.759,0,0,0,2944.986,695a.844.844,0,0,1-.731.422h-14.307a.844.844,0,0,1-.731-.422,6.759,6.759,0,0,0-12.617,3.387c0,.746-.052,1.919-.117,3.4-.137,3.107-.324,7.363-.192,11.177.2,5.686,1.037,7.381,1.519,7.885a.555.555,0,0,0,.419.217c1.586,0,5.143-2.392,7.935-8.813a.843.843,0,1,1,1.547.673,23.5,23.5,0,0,1-4.732,7.287c-1.654,1.638-3.341,2.54-4.75,2.54a2.241,2.241,0,0,1-1.638-.737c-2.372-2.479-2.186-11.388-1.793-20.3.064-1.464.115-2.621.115-3.329a8.446,8.446,0,0,1,15.505-4.652h13.366a8.446,8.446,0,0,1,15.505,4.652c0,.709.051,1.865.116,3.329.393,8.913.578,17.823-1.793,20.3A2.241,2.241,0,0,1,2955.975,722.752Z" transform="translate(-2914.562 -689.923)" fill="#fbba06"/>
          <path id="Path_283" data-name="Path 283" d="M2993.917,766.521h-9.808a.844.844,0,0,1,0-1.687h9.808a.844.844,0,0,1,0,1.687Z" transform="translate(-2966.472 -746.523)" fill="#fbba06"/>
          <path id="Path_284" data-name="Path 284" d="M2956.784,758.552a4.648,4.648,0,1,1,4.648-4.648A4.653,4.653,0,0,1,2956.784,758.552Zm0-7.609a2.961,2.961,0,1,0,2.961,2.961A2.965,2.965,0,0,0,2956.784,750.943Z" transform="translate(-2942.951 -734.753)" fill="#fbba06"/>
          <path id="Path_285" data-name="Path 285" d="M3028.039,758.552a4.648,4.648,0,1,1,4.648-4.648A4.653,4.653,0,0,1,3028.039,758.552Zm0-7.609A2.961,2.961,0,1,0,3031,753.9,2.964,2.964,0,0,0,3028.039,750.943Z" transform="translate(-2996.79 -734.753)" fill="#fbba06"/>
        </g>
        <path id="Path_286" data-name="Path 286" d="M2933.836,712.677a2.714,2.714,0,0,1-2.711-2.711v-.642h-.642a2.711,2.711,0,1,1,0-5.422h.642v-.642a2.711,2.711,0,1,1,5.422,0v.642h.642a2.711,2.711,0,1,1,0,5.422h-.642v.642A2.714,2.714,0,0,1,2933.836,712.677Zm-3.353-7.088a1.024,1.024,0,1,0,0,2.048h1.485a.844.844,0,0,1,.844.844v1.485a1.024,1.024,0,1,0,2.048,0v-1.485a.844.844,0,0,1,.844-.844h1.485a1.024,1.024,0,0,0,0-2.048H2935.7a.844.844,0,0,1-.844-.843v-1.485a1.024,1.024,0,0,0-2.048,0v1.485a.844.844,0,0,1-.844.843Z" transform="translate(-2924.543 -697.952)" fill="#fbba06"/>
        <path id="Path_287" data-name="Path 287" d="M3055.071,707.46a2.365,2.365,0,1,1,2.365-2.365A2.367,2.367,0,0,1,3055.071,707.46Zm0-3.042a.678.678,0,1,0,.678.677A.678.678,0,0,0,3055.071,704.418Z" transform="translate(-3018.94 -699.6)" fill="#fbba06"/>
        <path id="Path_288" data-name="Path 288" d="M3055.071,736.131a2.365,2.365,0,1,1,2.365-2.365A2.367,2.367,0,0,1,3055.071,736.131Zm0-3.042a.678.678,0,1,0,.678.678A.678.678,0,0,0,3055.071,733.089Z" transform="translate(-3018.94 -721.263)" fill="#fbba06"/>
        <path id="Path_289" data-name="Path 289" d="M3069.406,721.795a2.364,2.364,0,1,1,2.365-2.364A2.367,2.367,0,0,1,3069.406,721.795Zm0-3.042a.678.678,0,1,0,.678.678A.678.678,0,0,0,3069.406,718.753Z" transform="translate(-3029.771 -710.431)" fill="#fbba06"/>
        <path id="Path_290" data-name="Path 290" d="M3040.735,721.795a2.364,2.364,0,1,1,2.365-2.364A2.367,2.367,0,0,1,3040.735,721.795Zm0-3.042a.678.678,0,1,0,.678.678A.678.678,0,0,0,3040.735,718.753Z" transform="translate(-3008.108 -710.431)" fill="#fbba06"/>
        <path id="Path_291" data-name="Path 291" d="M2998.561,744.342a2.658,2.658,0,1,1,2.659-2.658A2.661,2.661,0,0,1,2998.561,744.342Zm0-3.63a.971.971,0,1,0,.972.971A.972.972,0,0,0,2998.561,740.712Z" transform="translate(-2976.021 -727.023)" fill="#fbba06"/>
        <path id="Path_292" data-name="Path 292" d="M2993.917,720.374h-9.808a.844.844,0,0,1-.844-.844v-3.078a.844.844,0,0,1,.844-.844h9.808a.843.843,0,0,1,.843.844v3.078A.843.843,0,0,1,2993.917,720.374Zm-8.964-1.687h8.121V717.3h-8.121Z" transform="translate(-2966.472 -709.33)" fill="#fbba06"/>
      </g>
      <g id="Group_105" data-name="Group 105" transform="translate(13.209 0)">
        <g id="Group_103" data-name="Group 103" transform="translate(0 8.845)">
          <path id="Path_293" data-name="Path 293" d="M2985.839,631.27l-6,6.633a2.646,2.646,0,0,1-3.734.186l-6.633-6a2.647,2.647,0,0,1-.186-3.735l6-6.633a2.647,2.647,0,0,1,3.734-.186l6.633,6A2.647,2.647,0,0,1,2985.839,631.27Zm-15.375-1.85a1.052,1.052,0,0,0,.074,1.484l6.633,6a1.052,1.052,0,0,0,1.485-.074l6-6.633a1.052,1.052,0,0,0-.074-1.484l-6.632-6a1.053,1.053,0,0,0-1.485.074Z" transform="translate(-2968.6 -620.849)" fill="#fbba06"/>
        </g>
        <g id="Group_104" data-name="Group 104" transform="translate(1.235)">
          <path id="Path_294" data-name="Path 294" d="M2990.894,595.085l-3.717,4.106a.8.8,0,0,1-1.181-1.069l3.717-4.106a1.052,1.052,0,0,0-.074-1.484l-6.633-6a1.052,1.052,0,0,0-1.484.074l-6,6.633a1.052,1.052,0,0,0,.074,1.484l2.352,2.128a.8.8,0,0,1-1.069,1.181l-2.351-2.128a2.647,2.647,0,0,1-.186-3.735l6-6.633a2.647,2.647,0,0,1,3.735-.186l6.633,6A2.647,2.647,0,0,1,2990.894,595.085Z" transform="translate(-2973.654 -584.665)" fill="#fbba06"/>
        </g>
      </g>
    </g>
  </g>
</svg>
