<svg xmlns="http://www.w3.org/2000/svg" width="107.318" height="104.743" viewBox="0 0 107.318 104.743">
  <g id="Group_697" data-name="Group 697" transform="translate(-224.446 -1268.316)">
    <g id="Group_691" data-name="Group 691" transform="translate(61 -20.021)">
      <g id="Group_689" data-name="Group 689" transform="translate(164 1289)">
        <g id="Group_72" data-name="Group 72" transform="translate(0 0)" opacity="0.12">
          <rect id="Rectangle_1517" data-name="Rectangle 1517" width="25.502" height="1.171" transform="matrix(0.566, -0.825, 0.825, 0.566, 12.404, 59.342)" fill="#ff572c" stroke="#ff572c" stroke-width="0.75"/>
          <path id="Path_110" data-name="Path 110" d="M352.846,714.992l-20.168-9.964,5.956-8.683.966.662-5.191,7.569,18.957,9.365Z" transform="translate(-332.678 -627.602)" fill="#ff572c" stroke="#ff572c" stroke-width="0.75"/>
          <path id="Path_111" data-name="Path 111" d="M572.1,856.947,561.281,851.6l.519-1.05,10.3,5.09,9.847-4.865.519,1.05Z" transform="translate(-518.997 -753.285)" fill="#ff572c" stroke="#ff572c" stroke-width="0.75"/>
          <path id="Path_112" data-name="Path 112" d="M842.124,674.426l-.519-1.05,8.7-4.3L839.592,653.45l.966-.662,11.482,16.74Z" transform="translate(-745.829 -592.101)" fill="#ff572c" stroke="#ff572c" stroke-width="0.75"/>
          <path id="Path_113" data-name="Path 113" d="M556.562,342.669l-.966-.662,11.873-17.31,11.638,16.968-.966.662-10.672-15.56Z" transform="translate(-514.363 -324.697)" fill="#ff572c" stroke="#ff572c" stroke-width="0.75"/>
          <rect id="Rectangle_1518" data-name="Rectangle 1518" width="1.171" height="27.759" transform="matrix(0.443, -0.897, 0.897, 0.443, 19.079, 82.541)" fill="#ff572c" stroke="#ff572c" stroke-width="0.75"/>
          <path id="Path_114" data-name="Path 114" d="M814.282,671.619l-.519-1.05,9.138-4.515-9.933-14.483.966-.662,10.7,15.6Z" transform="translate(-724.129 -590.571)" fill="#ff572c" stroke="#ff572c" stroke-width="0.75"/>
          <rect id="Rectangle_1519" data-name="Rectangle 1519" width="1.171" height="43.688" transform="matrix(0.825, -0.566, 0.566, 0.825, 64.127, 24.973)" fill="#ff572c" stroke="#ff572c" stroke-width="0.75"/>
          <g id="Group_71" data-name="Group 71" transform="translate(11.677 13.355)">
            <g id="Group_69" data-name="Group 69" transform="translate(0 53.22)">
              <path id="Path_115" data-name="Path 115" d="M453.49,754.88a.057.057,0,0,1-.026-.006l-.945-.467a.059.059,0,1,1,.052-.1l.945.467a.058.058,0,0,1-.026.111Z" transform="translate(-442.003 -741.409)" fill="#ff572c" stroke="#ff572c" stroke-width="0.75"/>
              <path id="Path_116" data-name="Path 116" d="M417.116,736.91a.06.06,0,0,1-.026-.006l-1.9-.94a.059.059,0,1,1,.052-.1l1.9.94a.058.058,0,0,1-.026.111Zm-3.8-1.879a.058.058,0,0,1-.026-.006l-1.9-.94a.059.059,0,1,1,.052-.1l1.9.94a.059.059,0,0,1-.026.111Z" transform="translate(-408.476 -724.846)" fill="#ff572c" stroke="#ff572c" stroke-width="0.75"/>
              <path id="Path_117" data-name="Path 117" d="M396.839,723.123a.061.061,0,0,1-.026-.006l-1.005-.5.634-.925a.059.059,0,0,1,.1.066l-.558.814.885.437a.059.059,0,0,1-.026.111Z" transform="translate(-395.808 -714.818)" fill="#ff572c" stroke="#ff572c" stroke-width="0.75"/>
              <path id="Path_118" data-name="Path 118" d="M406.636,702.216a.058.058,0,0,1-.048-.092l1.368-1.995a.059.059,0,0,1,.1.066l-1.368,1.995A.059.059,0,0,1,406.636,702.216Z" transform="translate(-404.586 -697.241)" fill="#ff572c" stroke="#ff572c" stroke-width="0.75"/>
              <path id="Path_119" data-name="Path 119" d="M421.427,685.609a.059.059,0,0,1-.048-.092l.6-.869a.059.059,0,0,1,.1.066l-.6.869A.058.058,0,0,1,421.427,685.609Z" transform="translate(-416.641 -684.623)" fill="#ff572c" stroke="#ff572c" stroke-width="0.75"/>
            </g>
            <g id="Group_70" data-name="Group 70" transform="translate(11.429 66.574)">
              <path id="Path_120" data-name="Path 120" d="M564.933,809.937a.058.058,0,0,1-.026-.006l-.945-.467a.059.059,0,0,1,.052-.105l.945.467a.058.058,0,0,1-.026.111Z" transform="translate(-544.261 -799.636)" fill="#ff572c" stroke="#ff572c" stroke-width="0.75"/>
              <path id="Path_121" data-name="Path 121" d="M488.572,772.212a.059.059,0,0,1-.026-.006l-2.08-1.028a.059.059,0,0,1,.052-.1l2.08,1.028a.059.059,0,0,1-.026.111Zm-4.161-2.055a.06.06,0,0,1-.026-.006l-2.08-1.028a.059.059,0,1,1,.052-.1l2.08,1.028a.059.059,0,0,1-.026.111Zm-4.161-2.056a.059.059,0,0,1-.026-.006l-2.08-1.028a.058.058,0,1,1,.052-.1l2.08,1.028a.059.059,0,0,1-.026.111Zm-4.161-2.056a.06.06,0,0,1-.026-.006l-2.08-1.028a.059.059,0,1,1,.052-.105l2.08,1.028a.058.058,0,0,1-.026.111Z" transform="translate(-470.926 -763.406)" fill="#ff572c" stroke="#ff572c" stroke-width="0.75"/>
              <path id="Path_122" data-name="Path 122" d="M458.6,757.4a.058.058,0,0,1-.026-.006l-.945-.467a.059.059,0,1,1,.052-.1l.945.467a.058.058,0,0,1-.026.111Z" transform="translate(-457.595 -756.82)" fill="#ff572c" stroke="#ff572c" stroke-width="0.75"/>
            </g>
            <path id="Path_123" data-name="Path 123" d="M577.882,810.09l-9.509-4.7.363-.735,9.146,4.518,11.7-5.778.363.735Z" transform="translate(-536.454 -728.208)" fill="#ff572c" stroke="#ff572c" stroke-width="0.75"/>
            <rect id="Rectangle_1520" data-name="Rectangle 1520" width="16.743" height="0.82" transform="translate(59.181 72.196) rotate(-26.29)" fill="#ff572c" stroke="#ff572c" stroke-width="0.75"/>
            <path id="Path_124" data-name="Path 124" d="M787.515,659.568a.059.059,0,0,1-.026-.111l1.89-.934a.059.059,0,1,1,.052.1l-1.89.934A.059.059,0,0,1,787.515,659.568Zm3.78-1.868a.058.058,0,0,1-.053-.032.059.059,0,0,1,.026-.078l1.89-.934a.059.059,0,1,1,.052.1l-1.89.934A.056.056,0,0,1,791.3,657.7Zm3.166-2.028a.058.058,0,0,1-.048-.026l-1.192-1.739a.059.059,0,1,1,.1-.066l1.192,1.738a.059.059,0,0,1-.015.081A.057.057,0,0,1,794.462,655.673Zm-2.385-3.477a.058.058,0,0,1-.048-.025l-1.192-1.739a.059.059,0,1,1,.1-.066l1.192,1.738a.058.058,0,0,1-.048.092Zm-2.385-3.477a.059.059,0,0,1-.048-.026l-1.192-1.738a.059.059,0,0,1,.1-.066l1.192,1.738a.059.059,0,0,1-.048.092Zm-2.385-3.477a.058.058,0,0,1-.048-.026l-1.192-1.738a.059.059,0,0,1,.1-.066l1.193,1.739a.059.059,0,0,1-.048.092Zm-2.385-3.477a.057.057,0,0,1-.048-.025L783.682,640a.059.059,0,1,1,.1-.066l1.193,1.739a.058.058,0,0,1-.048.091Z" transform="translate(-711.929 -594.96)" fill="#ff572c" stroke="#ff572c" stroke-width="0.75"/>
            <path id="Path_125" data-name="Path 125" d="M694.329,509.68a.059.059,0,0,1-.049-.025l-1.192-1.739a.059.059,0,0,1,.1-.066l1.193,1.739a.059.059,0,0,1-.015.081A.057.057,0,0,1,694.329,509.68Zm-2.385-3.477a.059.059,0,0,1-.048-.025L690.7,504.44a.059.059,0,0,1,.1-.066l1.192,1.738a.059.059,0,0,1-.048.092Zm-2.385-3.477a.058.058,0,0,1-.048-.026l-1.192-1.738a.059.059,0,0,1,.1-.066l1.192,1.738a.058.058,0,0,1-.015.081A.058.058,0,0,1,689.559,502.727Zm-2.385-3.477a.059.059,0,0,1-.049-.025l-1.192-1.739a.059.059,0,0,1,.1-.066l1.192,1.739a.058.058,0,0,1-.048.092Zm-2.385-3.477a.058.058,0,0,1-.048-.026l-1.193-1.738a.059.059,0,1,1,.1-.066l1.193,1.738a.059.059,0,0,1-.015.081A.057.057,0,0,1,684.79,495.773ZM682.4,492.3a.058.058,0,0,1-.048-.026l-1.193-1.739a.059.059,0,0,1,.1-.066l1.192,1.739a.059.059,0,0,1-.015.081A.058.058,0,0,1,682.4,492.3Zm-2.385-3.477a.058.058,0,0,1-.048-.025l-1.192-1.739a.059.059,0,1,1,.1-.066l1.192,1.739a.058.058,0,0,1-.048.092Zm-2.385-3.477a.059.059,0,0,1-.048-.026l-1.192-1.738a.058.058,0,1,1,.1-.066l1.193,1.738a.059.059,0,0,1-.015.081A.058.058,0,0,1,677.635,485.342Zm-2.385-3.477a.058.058,0,0,1-.048-.025L674.01,480.1a.059.059,0,0,1,.1-.066l1.192,1.738a.059.059,0,0,1-.015.081A.058.058,0,0,1,675.251,481.865Z" transform="translate(-622.543 -464.637)" fill="#ff572c" stroke="#ff572c" stroke-width="0.75"/>
            <path id="Path_126" data-name="Path 126" d="M559.564,413.785l-.676-.464L570.152,396.9l10.425,15.2-.676.464-9.749-14.214Z" transform="translate(-528.724 -396.899)" fill="#ff572c" stroke="#ff572c" stroke-width="0.75"/>
            <rect id="Rectangle_1521" data-name="Rectangle 1521" width="19.458" height="0.82" transform="translate(12.322 42.437) rotate(-55.557)" fill="#ff572c" stroke="#ff572c" stroke-width="0.75"/>
            <rect id="Rectangle_1522" data-name="Rectangle 1522" width="12.866" height="0.82" transform="translate(5.045 53.047) rotate(-55.557)" fill="#ff572c" stroke="#ff572c" stroke-width="0.75"/>
          </g>
          <path id="Path_127" data-name="Path 127" d="M470.014,514.74l-.13-.064-33.86-16.728,33.99-49.556L504,497.948Zm-33.125-17.018,33.125,16.365,33.124-16.365-33.124-48.295Z" transform="translate(-416.908 -425.512)" fill="#ff572c" stroke="#ff572c" stroke-width="0.75" opacity="0.1"/>
          <path id="Path_128" data-name="Path 128" d="M497.455,542.883l-27.762-13.715.115-.167,27.647-40.309,27.762,40.476-.182.09Zm-27.243-13.851,27.243,13.459L524.7,529.032l-27.243-39.72Z" transform="translate(-444.35 -458.357)" fill="#ff572c" stroke="#ff572c" stroke-width="0.75" opacity="0.08"/>
          <path id="Path_129" data-name="Path 129" d="M527.183,573.37l-21.015-10.382,21.015-30.64,21.015,30.64Zm-20.5-10.518,20.5,10.126,20.5-10.126-20.5-29.883Z" transform="translate(-474.078 -493.939)" fill="#ff572c" stroke="#ff572c" stroke-width="0.75" opacity="0.06"/>
          <path id="Path_130" data-name="Path 130" d="M562.247,609.329l-13.058-6.451,13.058-19.038L575.3,602.879Zm-12.539-6.586,12.539,6.195,12.538-6.195-12.538-18.281Z" transform="translate(-509.142 -535.908)" fill="#ff572c" stroke="#ff572c" stroke-width="0.75" opacity="0.04"/>
          <path id="Path_131" data-name="Path 131" d="M592.738,640.6l-6.138-3.032,6.138-8.949,6.138,8.949Zm-5.965-3.077,5.965,2.947,5.965-2.947-5.965-8.7Z" transform="translate(-539.633 -572.402)" fill="#ff572c" stroke="#ff572c" stroke-width="0.75" opacity="0.03"/>
        </g>
        <g id="Group_76" data-name="Group 76" transform="translate(33.42 30.219)">
          <path id="Path_132" data-name="Path 132" d="M617.343,553.805a.771.771,0,0,0-1.533,0,6.657,6.657,0,0,1,1.533,0Z" transform="translate(-596.86 -541.087)" fill="#ff572c"/>
          <path id="Path_133" data-name="Path 133" d="M667.493,600.565a13.625,13.625,0,0,0-4.631-10.231.6.6,0,1,0-.8.907,12.409,12.409,0,0,1-.295,18.9.6.6,0,1,0,.769.932A13.58,13.58,0,0,0,667.493,600.565Z" transform="translate(-634.14 -571.296)" fill="#ff572c"/>
          <path id="Path_134" data-name="Path 134" d="M551.472,610.041a.6.6,0,1,0,.763-.936,12.409,12.409,0,0,1-.076-19.177.6.6,0,1,0-.771-.93,13.616,13.616,0,0,0,.083,21.043Z" transform="translate(-540.335 -570.217)" fill="#ff572c"/>
          <path id="Path_135" data-name="Path 135" d="M655.347,630.51a.6.6,0,0,0,.827-.211,8.834,8.834,0,0,0,.085-8.841.6.6,0,0,0-1.051.6,7.625,7.625,0,0,1-.073,7.63A.6.6,0,0,0,655.347,630.51Z" transform="translate(-628.842 -596.536)" fill="#ff572c"/>
          <path id="Path_136" data-name="Path 136" d="M574.336,621.229a.6.6,0,0,0-.823.227,8.835,8.835,0,0,0,.012,8.716.6.6,0,1,0,1.049-.6,7.627,7.627,0,0,1-.011-7.522A.6.6,0,0,0,574.336,621.229Z" transform="translate(-561.454 -596.536)" fill="#ff572c"/>
          <g id="Group_75" data-name="Group 75" transform="translate(10.467 10.824)">
            <path id="Path_137" data-name="Path 137" d="M605.439,618.722v-.076a.253.253,0,0,0-.254-.253h-8.045a.253.253,0,0,0-.254.253v.076a.254.254,0,0,0,.254.253h8.045A.253.253,0,0,0,605.439,618.722Z" transform="translate(-591.903 -605.112)" fill="none"/>
            <path id="Path_138" data-name="Path 138" d="M589.9,682.361h10.813c.11,0,.2-.119.2-.266v-.133c0-.147-.089-.266-.2-.266H589.9c-.11,0-.2.119-.2.266v.133C589.7,682.242,589.791,682.361,589.9,682.361Z" transform="translate(-586.048 -656.706)" fill="none"/>
            <path id="Path_139" data-name="Path 139" d="M595.574,572.1h3.667a1.438,1.438,0,0,1,.428.053,5.628,5.628,0,0,0-2.97-8.824c-.258-.061-.493-.108-.717-.143-.159-.024-.313-.042-.465-.053l-.037,0a4.864,4.864,0,0,0-1.037.048c-.232.034-.478.083-.75.149a5.627,5.627,0,0,0-2.969,8.824,1.426,1.426,0,0,1,.427-.053Z" transform="translate(-585.947 -560.06)" fill="none"/>
            <path id="Path_140" data-name="Path 140" d="M617.343,553.805a.771.771,0,0,0-1.533,0,6.685,6.685,0,0,1,1.533,0Z" transform="translate(-607.327 -551.91)" fill="none"/>
            <path id="Path_141" data-name="Path 141" d="M607.233,634.71a14.058,14.058,0,0,1-.671-4l.011.007c-.008-.078-.012-.163-.015-.254,0-.127,0-.265,0-.409a21.869,21.869,0,0,1,.246-2.235h-5a13.978,13.978,0,0,1-.442,6.939l-.613,1.863h7.106Z" transform="translate(-595.053 -612.796)" fill="none"/>
            <path id="Path_142" data-name="Path 142" d="M596.513,694.506l.006,0c-.43-1.064-1.183-2.934-1.183-2.934h-8.923l-2.157,5.232h13.205Z" transform="translate(-581.609 -664.756)" fill="none"/>
            <path id="Path_143" data-name="Path 143" d="M592.173,726.594H576.467a.228.228,0,0,0-.234.224v.112a.247.247,0,0,0,.234.246h15.706a.265.265,0,0,0,.254-.246v-.112A.247.247,0,0,0,592.173,726.594Z" transform="translate(-575.071 -693.299)" fill="none"/>
            <g id="Group_74" data-name="Group 74">
              <path id="Path_144" data-name="Path 144" d="M596.513,694.506l.006,0c-.43-1.064-1.183-2.934-1.183-2.934h-8.923l-2.157,5.232h13.205Z" transform="translate(-581.609 -664.756)" fill="none"/>
              <path id="Path_145" data-name="Path 145" d="M607.233,634.71a14.058,14.058,0,0,1-.671-4l.011.007c-.008-.078-.012-.163-.015-.254,0-.127,0-.265,0-.409a21.869,21.869,0,0,1,.246-2.235h-5a13.978,13.978,0,0,1-.442,6.939l-.613,1.863h7.106Z" transform="translate(-595.053 -612.796)" fill="none"/>
              <path id="Path_146" data-name="Path 146" d="M589.9,682.361h10.813c.11,0,.2-.119.2-.266v-.133c0-.147-.089-.266-.2-.266H589.9c-.11,0-.2.119-.2.266v.133C589.7,682.242,589.791,682.361,589.9,682.361Z" transform="translate(-586.048 -656.706)" fill="none"/>
              <path id="Path_147" data-name="Path 147" d="M595.574,572.1h3.667a1.438,1.438,0,0,1,.428.053,5.628,5.628,0,0,0-2.97-8.824c-.258-.061-.493-.108-.717-.143-.159-.024-.313-.042-.465-.053l-.037,0a4.864,4.864,0,0,0-1.037.048c-.232.034-.478.083-.75.149a5.627,5.627,0,0,0-2.969,8.824,1.426,1.426,0,0,1,.427-.053Z" transform="translate(-585.947 -560.06)" fill="none"/>
              <path id="Path_148" data-name="Path 148" d="M605.439,618.722v-.076a.253.253,0,0,0-.254-.253h-8.045a.253.253,0,0,0-.254.253v.076a.254.254,0,0,0,.254.253h8.045A.253.253,0,0,0,605.439,618.722Z" transform="translate(-591.903 -605.112)" fill="none"/>
              <path id="Path_149" data-name="Path 149" d="M617.343,553.805a.771.771,0,0,0-1.533,0,6.685,6.685,0,0,1,1.533,0Z" transform="translate(-607.327 -551.91)" fill="none"/>
              <path id="Path_150" data-name="Path 150" d="M592.327,726.594H576.621a.235.235,0,0,0-.2.107.235.235,0,0,1,.2-.107h15.706a.247.247,0,0,1,.254.224v.112a.221.221,0,0,1-.032.109.218.218,0,0,0,.032-.109v-.112A.247.247,0,0,0,592.327,726.594Z" transform="translate(-575.225 -693.299)" fill="none"/>
              <path id="Path_151" data-name="Path 151" d="M576.909,729.405a.219.219,0,0,1-.134-.048.219.219,0,0,0,.134.048h15.706a.26.26,0,0,0,.175-.075.26.26,0,0,1-.175.075Z" transform="translate(-575.512 -695.529)" fill="none"/>
              <g id="Group_73" data-name="Group 73">
                <path id="Path_152" data-name="Path 152" d="M607.233,634.71a14.058,14.058,0,0,1-.671-4l.011.007c-.008-.078-.012-.163-.015-.254,0-.127,0-.265,0-.409a21.869,21.869,0,0,1,.246-2.235h-5a13.978,13.978,0,0,1-.442,6.939l-.613,1.863h7.106Z" transform="translate(-595.053 -612.796)" fill="none"/>
                <path id="Path_153" data-name="Path 153" d="M589.9,682.361h10.813c.11,0,.2-.119.2-.266v-.133c0-.147-.089-.266-.2-.266H589.9c-.11,0-.2.119-.2.266v.133C589.7,682.242,589.791,682.361,589.9,682.361Z" transform="translate(-586.048 -656.706)" fill="none"/>
                <path id="Path_154" data-name="Path 154" d="M617.343,553.805a.771.771,0,0,0-1.533,0,6.685,6.685,0,0,1,1.533,0Z" transform="translate(-607.327 -551.91)" fill="none"/>
                <path id="Path_155" data-name="Path 155" d="M595.574,572.1h3.667a1.438,1.438,0,0,1,.428.053,5.628,5.628,0,0,0-2.97-8.824c-.258-.061-.493-.108-.717-.143-.159-.024-.313-.042-.465-.053l-.037,0a4.864,4.864,0,0,0-1.037.048c-.232.034-.478.083-.75.149a5.627,5.627,0,0,0-2.969,8.824,1.426,1.426,0,0,1,.427-.053Z" transform="translate(-585.947 -560.06)" fill="none"/>
                <path id="Path_156" data-name="Path 156" d="M596.885,618.713a.252.252,0,0,1,.17-.237.252.252,0,0,0-.17.237v.076a.25.25,0,0,0,.05.149.25.25,0,0,1-.05-.149Z" transform="translate(-591.903 -605.179)" fill="none"/>
                <path id="Path_157" data-name="Path 157" d="M596.513,694.506l.006,0c-.43-1.064-1.183-2.934-1.183-2.934h-8.923l-2.157,5.232h13.205Z" transform="translate(-581.609 -664.756)" fill="none"/>
                <path id="Path_158" data-name="Path 158" d="M592.173,726.594H576.467a.235.235,0,0,0-.2.107.215.215,0,0,0-.035.117v.112a.255.255,0,0,0,.1.2.219.219,0,0,0,.133.048h15.706a.261.261,0,0,0,.175-.075.281.281,0,0,0,.048-.062.218.218,0,0,0,.032-.109v-.112A.247.247,0,0,0,592.173,726.594Z" transform="translate(-575.071 -693.299)" fill="none"/>
                <path id="Path_159" data-name="Path 159" d="M587.1,578.673l-2.194-5.307a1.423,1.423,0,0,0,1.074-1.395v-.111a1.4,1.4,0,0,0-1.391-1.442h-.564l-.744-2.3a12.728,12.728,0,0,1-.356-6.49l.006-.015h.314a1.434,1.434,0,0,0,1.405-1.464v-.111a1.421,1.421,0,0,0-.1-.56,6.815,6.815,0,0,0-3.385-10.748c0-.054.009-.108.009-.164a1.978,1.978,0,1,0-3.956,0c0,.055,0,.11.008.164a6.843,6.843,0,0,0-3.413,10.749,1.443,1.443,0,0,0-.128.559v.111a1.488,1.488,0,0,0,1.468,1.464h.317a12.731,12.731,0,0,1-.359,6.565l-.736,2.238h-.565a1.387,1.387,0,0,0-1.371,1.442v.111a1.41,1.41,0,0,0,1.059,1.395l-2.172,5.307a1.435,1.435,0,0,0-1.378,1.435v.111a1.379,1.379,0,0,0,1.4,1.408H587.05a1.4,1.4,0,0,0,1.417-1.408v-.111A1.43,1.43,0,0,0,587.1,578.673ZM579.2,547.8a.772.772,0,0,1,.766.687,6.673,6.673,0,0,0-1.532,0A.772.772,0,0,1,579.2,547.8Zm-5.618,7.475a5.635,5.635,0,0,1,4.116-5.419c.272-.066.518-.115.75-.149a4.865,4.865,0,0,1,1.037-.048l.037,0c.151.01.305.028.465.053.224.034.458.082.717.143a5.628,5.628,0,0,1,2.97,8.825,1.434,1.434,0,0,0-.428-.053h-8.089a1.433,1.433,0,0,0-.427.052A5.634,5.634,0,0,1,573.579,555.272Zm1.606,5.18a.254.254,0,0,1-.2-.1.251.251,0,0,1-.05-.149v-.076a.252.252,0,0,1,.17-.237.256.256,0,0,1,.084-.015h8.045a.253.253,0,0,1,.254.253v.076a.254.254,0,0,1-.254.253Zm1.074,8.1a13.978,13.978,0,0,0,.442-6.939h5a21.868,21.868,0,0,0-.246,2.235c-.005.144-.008.282,0,.409,0,.091.007.177.015.254l-.011-.007a14.059,14.059,0,0,0,.671,4l.624,1.914h-7.106Zm-2.657,3.291c0-.147.089-.266.2-.266h10.813c.11,0,.2.119.2.266v.133c0,.147-.089.266-.2.266H573.8c-.11,0-.2-.119-.2-.266Zm1.149,1.561h8.923s.753,1.87,1.183,2.934l-.006,0,.948,2.3H572.594ZM587.3,580.22a.217.217,0,0,1-.032.109.274.274,0,0,1-.047.062.261.261,0,0,1-.175.075H571.344a.22.22,0,0,1-.133-.048.255.255,0,0,1-.1-.2v-.111a.217.217,0,0,1,.035-.117.236.236,0,0,1,.2-.107H587.05a.247.247,0,0,1,.254.224Z" transform="translate(-569.948 -546.589)" fill="#ff572c"/>
                <path id="Path_160" data-name="Path 160" d="M605.658,618.722v-.076a.253.253,0,0,0-.254-.253h-8.045a.256.256,0,0,0-.084.015.256.256,0,0,1,.084-.015H605.4a.253.253,0,0,1,.254.253v.076a.253.253,0,0,1-.254.253h-8.045a.255.255,0,0,1-.2-.1.255.255,0,0,0,.2.1H605.4A.253.253,0,0,0,605.658,618.722Z" transform="translate(-592.122 -605.112)" fill="#ff572c"/>
              </g>
              <path id="Path_161" data-name="Path 161" d="M663.4,728.995a.263.263,0,0,1-.048.062A.263.263,0,0,0,663.4,728.995Z" transform="translate(-646.076 -695.256)" fill="#ff572c"/>
              <path id="Path_162" data-name="Path 162" d="M576.233,727.4v-.112a.215.215,0,0,1,.035-.117.215.215,0,0,0-.035.117v.112a.255.255,0,0,0,.1.2A.255.255,0,0,1,576.233,727.4Z" transform="translate(-575.071 -693.77)" fill="#ff572c"/>
            </g>
          </g>
          <path id="Path_163" data-name="Path 163" d="M517.708,645.912a.585.585,0,0,0-.6-.581h-3.14a.582.582,0,1,0,0,1.163h3.14A.585.585,0,0,0,517.708,645.912Z" transform="translate(-513.36 -616.243)" fill="#ff572c"/>
          <path id="Path_164" data-name="Path 164" d="M706.444,645.331H703.3a.582.582,0,1,0,0,1.163h3.14a.582.582,0,1,0,0-1.163Z" transform="translate(-667.678 -616.243)" fill="#ff572c"/>
          <path id="Path_165" data-name="Path 165" d="M543.6,709.313a.6.6,0,0,0,.854,0l2.22-2.22a.6.6,0,0,0-.854-.854l-2.22,2.22A.6.6,0,0,0,543.6,709.313Z" transform="translate(-537.86 -665.741)" fill="#ff572c"/>
          <path id="Path_166" data-name="Path 166" d="M680.556,572.355a.6.6,0,0,0-.854,0l-2.22,2.22a.6.6,0,1,0,.854.854l2.22-2.22A.6.6,0,0,0,680.556,572.355Z" transform="translate(-646.98 -556.621)" fill="#ff572c"/>
          <path id="Path_167" data-name="Path 167" d="M679.7,709.62a.6.6,0,0,0,.854-.854l-2.22-2.22a.6.6,0,0,0-.854.854Z" transform="translate(-646.98 -665.991)" fill="#ff572c"/>
          <path id="Path_168" data-name="Path 168" d="M545.818,575.737a.6.6,0,1,0,.854-.854l-2.22-2.22a.6.6,0,0,0-.854.854Z" transform="translate(-537.86 -556.872)" fill="#ff572c"/>
          <path id="Path_169" data-name="Path 169" d="M700.1,678.842l-2.912-1.173a.6.6,0,0,0-.452,1.12l2.912,1.173a.6.6,0,1,0,.452-1.12Z" transform="translate(-662.512 -642.563)" fill="#ff572c"/>
          <path id="Path_170" data-name="Path 170" d="M521.12,608.027l2.912,1.173a.6.6,0,0,0,.225.044.6.6,0,0,0,.226-1.164l-2.912-1.173a.6.6,0,0,0-.451,1.12Z" transform="translate(-519.376 -584.891)" fill="#ff572c"/>
          <path id="Path_171" data-name="Path 171" d="M523.928,675.847a.6.6,0,0,0-.778-.352l-2.938,1.108a.6.6,0,0,0,.426,1.13l2.938-1.108A.6.6,0,0,0,523.928,675.847Z" transform="translate(-518.626 -640.796)" fill="#ff572c"/>
          <path id="Path_172" data-name="Path 172" d="M697.019,610.566a.6.6,0,0,0,.778.352l2.938-1.108a.6.6,0,0,0-.426-1.13l-2.938,1.108A.6.6,0,0,0,697.019,610.566Z" transform="translate(-663.016 -586.34)" fill="#ff572c"/>
          <path id="Path_173" data-name="Path 173" d="M526.76,495.881H557.99v4.828h1.952v-7.755a4.886,4.886,0,0,0-4.88-4.88H529.688a4.886,4.886,0,0,0-4.88,4.88v7.755h1.952Zm0-2.928a2.931,2.931,0,0,1,2.928-2.928h25.375a2.931,2.931,0,0,1,2.928,2.928v.976H526.76Z" transform="translate(-522.69 -488.073)" fill="#ff572c"/>
          <path id="Path_174" data-name="Path 174" d="M557.99,727.069v3.9H526.76v-4.747h-1.952v9.627a4.886,4.886,0,0,0,4.88,4.88h25.375a4.886,4.886,0,0,0,4.88-4.88v-9.627H557.99Zm0,8.784a2.931,2.931,0,0,1-2.928,2.928H529.688a2.931,2.931,0,0,1-2.928-2.928v-2.928H557.99Z" transform="translate(-522.69 -682.174)" fill="#ff572c"/>
          <rect id="Rectangle_1523" data-name="Rectangle 1523" width="1.952" height="1.952" transform="translate(18.709 52.702)" fill="#ff572c"/>
        </g>
      </g>
    </g>
  </g>
</svg>
