<svg xmlns="http://www.w3.org/2000/svg" width="108.072" height="105.479" viewBox="0 0 108.072 105.479">
  <g id="Group_703" data-name="Group 703" transform="translate(-7544.437 -424.362)">
    <g id="Group_122" data-name="Group 122" transform="translate(7544.991 425.025)" opacity="0.12">
      <rect id="Rectangle_1594" data-name="Rectangle 1594" width="25.683" height="1.179" transform="matrix(0.566, -0.825, 0.825, 0.566, 12.492, 59.763)" fill="#66a1d3" stroke="#66a1d3" stroke-width="0.75"/>
      <path id="Path_319" data-name="Path 319" d="M7565.3,748.921l-20.311-10.034,6-8.745.973.667-5.229,7.623,19.091,9.432Z" transform="translate(-7544.992 -660.91)" fill="#66a1d3" stroke="#66a1d3" stroke-width="0.75"/>
      <path id="Path_320" data-name="Path 320" d="M7743.567,863.183l-10.9-5.384.522-1.057,10.376,5.126,9.917-4.9.522,1.057Z" transform="translate(-7690.085 -758.785)" fill="#66a1d3" stroke="#66a1d3" stroke-width="0.75"/>
      <path id="Path_321" data-name="Path 321" d="M7963.707,716.174l-.522-1.057,8.767-4.331-10.794-15.737.973-.667,11.563,16.859Z" transform="translate(-7866.729 -633.264)" fill="#66a1d3" stroke="#66a1d3" stroke-width="0.75"/>
      <path id="Path_322" data-name="Path 322" d="M7728.975,443.125l-.973-.667,11.957-17.433,11.721,17.089-.973.667-10.748-15.671Z" transform="translate(-7686.477 -425.025)" fill="#66a1d3" stroke="#66a1d3" stroke-width="0.75"/>
      <rect id="Rectangle_1595" data-name="Rectangle 1595" width="1.179" height="27.956" transform="matrix(0.443, -0.897, 0.897, 0.443, 19.215, 83.127)" fill="#66a1d3" stroke="#66a1d3" stroke-width="0.75"/>
      <path id="Path_323" data-name="Path 323" d="M7940.623,713.7l-.522-1.057,9.2-4.547-10-14.586.973-.667,10.773,15.708Z" transform="translate(-7849.831 -632.072)" fill="#66a1d3" stroke="#66a1d3" stroke-width="0.75"/>
      <rect id="Rectangle_1596" data-name="Rectangle 1596" width="1.179" height="43.998" transform="matrix(0.825, -0.566, 0.566, 0.825, 64.582, 25.151)" fill="#66a1d3" stroke="#66a1d3" stroke-width="0.75"/>
      <g id="Group_121" data-name="Group 121" transform="translate(11.76 13.45)">
        <g id="Group_119" data-name="Group 119" transform="translate(0 53.598)">
          <path id="Path_324" data-name="Path 324" d="M7644.362,778.306a.058.058,0,0,1-.026-.006l-.952-.47a.059.059,0,0,1-.026-.079.059.059,0,0,1,.079-.027l.952.47a.06.06,0,0,1,.026.079A.059.059,0,0,1,7644.362,778.306Z" transform="translate(-7632.793 -764.739)" fill="#66a1d3" stroke="#66a1d3" stroke-width="0.75"/>
          <path id="Path_325" data-name="Path 325" d="M7615.387,763.991a.061.061,0,0,1-.026-.006l-1.916-.946a.059.059,0,0,1,.053-.106l1.915.946a.059.059,0,0,1,.027.079A.06.06,0,0,1,7615.387,763.991Zm-3.831-1.893a.058.058,0,0,1-.026-.006l-1.916-.946a.059.059,0,1,1,.052-.106l1.917.946a.059.059,0,0,1-.026.112Z" transform="translate(-7606.685 -751.841)" fill="#66a1d3" stroke="#66a1d3" stroke-width="0.75"/>
          <path id="Path_326" data-name="Path 326" d="M7597.858,752.4a.06.06,0,0,1-.026-.006l-1.013-.5.639-.932a.059.059,0,0,1,.082-.015.058.058,0,0,1,.016.082l-.562.819.892.44a.058.058,0,0,1,.026.079A.06.06,0,0,1,7597.858,752.4Z" transform="translate(-7596.819 -744.031)" fill="#66a1d3" stroke="#66a1d3" stroke-width="0.75"/>
          <path id="Path_327" data-name="Path 327" d="M7605.72,735.354a.056.056,0,0,1-.033-.01.058.058,0,0,1-.015-.082l1.377-2.009a.059.059,0,1,1,.1.067l-1.377,2.009A.06.06,0,0,1,7605.72,735.354Z" transform="translate(-7603.655 -730.344)" fill="#66a1d3" stroke="#66a1d3" stroke-width="0.75"/>
          <path id="Path_328" data-name="Path 328" d="M7617.863,721.511a.058.058,0,0,1-.033-.01.06.06,0,0,1-.016-.082l.6-.875a.059.059,0,0,1,.1.067l-.6.875A.06.06,0,0,1,7617.863,721.511Z" transform="translate(-7613.042 -720.517)" fill="#66a1d3" stroke="#66a1d3" stroke-width="0.75"/>
        </g>
        <g id="Group_120" data-name="Group 120" transform="translate(11.51 67.046)">
          <path id="Path_329" data-name="Path 329" d="M7735.855,823.507a.058.058,0,0,1-.026-.006l-.952-.47a.059.059,0,0,1,.053-.106l.951.47a.059.059,0,0,1-.025.112Z" transform="translate(-7715.036 -813.133)" fill="#66a1d3" stroke="#66a1d3" stroke-width="0.75"/>
          <path id="Path_330" data-name="Path 330" d="M7675.7,793.788a.058.058,0,0,1-.026-.006l-2.1-1.035a.059.059,0,1,1,.052-.106l2.1,1.035a.059.059,0,0,1-.026.112Zm-4.19-2.07a.061.061,0,0,1-.026-.006l-2.1-1.035a.059.059,0,0,1,.052-.106l2.1,1.035a.059.059,0,0,1-.027.112Zm-4.19-2.07a.057.057,0,0,1-.026-.006l-2.095-1.035a.059.059,0,1,1,.052-.106l2.1,1.035a.059.059,0,0,1-.026.112Zm-4.19-2.07a.058.058,0,0,1-.026-.006l-2.1-1.035a.059.059,0,1,1,.052-.106l2.1,1.035a.059.059,0,0,1-.026.112Z" transform="translate(-7657.927 -784.919)" fill="#66a1d3" stroke="#66a1d3" stroke-width="0.75"/>
          <path id="Path_331" data-name="Path 331" d="M7648.556,780.378a.058.058,0,0,1-.025-.006l-.952-.47a.059.059,0,0,1,.053-.106l.951.47a.059.059,0,0,1-.026.112Z" transform="translate(-7647.545 -779.79)" fill="#66a1d3" stroke="#66a1d3" stroke-width="0.75"/>
        </g>
        <path id="Path_332" data-name="Path 332" d="M7748.069,824.769l-9.577-4.731.366-.74,9.211,4.551,11.778-5.819.366.74Z" transform="translate(-7706.347 -742.306)" fill="#66a1d3" stroke="#66a1d3" stroke-width="0.75"/>
        <rect id="Rectangle_1597" data-name="Rectangle 1597" width="16.862" height="0.826" transform="translate(59.602 72.709) rotate(-26.29)" fill="#66a1d3" stroke="#66a1d3" stroke-width="0.75"/>
        <path id="Path_333" data-name="Path 333" d="M7919.119,703.606a.059.059,0,0,1-.026-.112l1.9-.941a.059.059,0,1,1,.052.106l-1.9.941A.056.056,0,0,1,7919.119,703.606Zm3.808-1.881a.06.06,0,0,1-.054-.033.059.059,0,0,1,.027-.079l1.9-.941a.059.059,0,1,1,.052.106l-1.9.94A.062.062,0,0,1,7922.927,701.726Zm3.188-2.042a.058.058,0,0,1-.048-.026l-1.2-1.751a.059.059,0,0,1,.016-.082.059.059,0,0,1,.082.015l1.2,1.751a.058.058,0,0,1-.016.082A.057.057,0,0,1,7926.115,699.684Zm-2.4-3.5a.058.058,0,0,1-.049-.026l-1.2-1.751a.059.059,0,1,1,.1-.067l1.2,1.751a.059.059,0,0,1-.015.082A.061.061,0,0,1,7923.713,696.182Zm-2.4-3.5a.058.058,0,0,1-.048-.026l-1.2-1.751a.059.059,0,1,1,.1-.067l1.2,1.751a.059.059,0,0,1-.016.082A.057.057,0,0,1,7921.312,692.681Zm-2.4-3.5a.059.059,0,0,1-.048-.026l-1.2-1.751a.059.059,0,1,1,.1-.067l1.2,1.751a.059.059,0,0,1-.015.082A.059.059,0,0,1,7918.91,689.179Zm-2.4-3.5a.059.059,0,0,1-.048-.026l-1.2-1.751a.059.059,0,1,1,.1-.067l1.2,1.751a.059.059,0,0,1-.015.082A.058.058,0,0,1,7916.508,685.677Z" transform="translate(-7842.997 -638.54)" fill="#66a1d3" stroke="#66a1d3" stroke-width="0.75"/>
        <path id="Path_334" data-name="Path 334" d="M7845.684,582.415a.06.06,0,0,1-.049-.026l-1.2-1.751a.059.059,0,0,1,.016-.082.058.058,0,0,1,.082.015l1.2,1.751a.06.06,0,0,1-.015.082A.059.059,0,0,1,7845.684,582.415Zm-2.4-3.5a.058.058,0,0,1-.048-.026l-1.2-1.751a.059.059,0,1,1,.1-.067l1.2,1.751a.059.059,0,0,1-.015.082A.06.06,0,0,1,7843.281,578.914Zm-2.4-3.5a.059.059,0,0,1-.049-.025l-1.2-1.751a.058.058,0,0,1,.015-.082.06.06,0,0,1,.083.015l1.2,1.751a.059.059,0,0,1-.015.082A.061.061,0,0,1,7840.88,575.412Zm-2.4-3.5a.059.059,0,0,1-.048-.026l-1.2-1.751a.059.059,0,0,1,.016-.082.059.059,0,0,1,.082.015l1.2,1.751a.058.058,0,0,1-.015.082A.057.057,0,0,1,7838.478,571.911Zm-2.4-3.5a.058.058,0,0,1-.048-.026l-1.2-1.751a.059.059,0,0,1,.1-.067l1.2,1.751a.059.059,0,0,1-.016.082A.06.06,0,0,1,7836.077,568.409Zm-2.4-3.5a.059.059,0,0,1-.049-.026l-1.2-1.751a.059.059,0,1,1,.1-.067l1.2,1.751a.06.06,0,0,1-.015.082A.059.059,0,0,1,7833.675,564.907Zm-2.4-3.5a.057.057,0,0,1-.048-.026l-1.2-1.751a.059.059,0,0,1,.1-.067l1.2,1.751a.06.06,0,0,1-.015.082A.059.059,0,0,1,7831.273,561.406Zm-2.4-3.5a.059.059,0,0,1-.049-.026l-1.2-1.751a.059.059,0,0,1,.1-.067l1.2,1.751a.059.059,0,0,1-.015.082A.056.056,0,0,1,7828.872,557.9Zm-2.4-3.5a.06.06,0,0,1-.049-.026l-1.2-1.751a.059.059,0,0,1,.015-.082.059.059,0,0,1,.083.015l1.2,1.751a.059.059,0,0,1-.015.082A.06.06,0,0,1,7826.47,554.4Z" transform="translate(-7773.388 -537.052)" fill="#66a1d3" stroke="#66a1d3" stroke-width="0.75"/>
        <path id="Path_335" data-name="Path 335" d="M7731.386,501.307l-.681-.467,11.343-16.539,10.5,15.307-.681.467-9.818-14.315Z" transform="translate(-7700.327 -484.302)" fill="#66a1d3" stroke="#66a1d3" stroke-width="0.75"/>
        <rect id="Rectangle_1598" data-name="Rectangle 1598" width="19.596" height="0.826" transform="translate(12.41 42.738) rotate(-55.557)" fill="#66a1d3" stroke="#66a1d3" stroke-width="0.75"/>
        <rect id="Rectangle_1599" data-name="Rectangle 1599" width="12.957" height="0.826" transform="translate(5.081 53.423) rotate(-55.557)" fill="#66a1d3" stroke="#66a1d3" stroke-width="0.75"/>
      </g>
      <path id="Path_336" data-name="Path 336" d="M7664.066,593.4l-.131-.065-34.1-16.847,34.231-49.908,34.23,49.908Zm-33.36-17.139,33.36,16.481,33.359-16.481-33.359-48.638Z" transform="translate(-7610.583 -503.535)" fill="#66a1d3" stroke="#66a1d3" stroke-width="0.75" opacity="0.1"/>
      <path id="Path_337" data-name="Path 337" d="M7685.437,614.237l-27.959-13.813.116-.168,27.843-40.6,27.959,40.763-.183.09ZM7658,600.288l27.437,13.555,27.437-13.555-27.437-40Z" transform="translate(-7631.954 -529.112)" fill="#66a1d3" stroke="#66a1d3" stroke-width="0.75" opacity="0.08"/>
      <path id="Path_338" data-name="Path 338" d="M7708.587,636.816l-21.165-10.456,21.165-30.857,21.164,30.857Zm-20.642-10.592,20.642,10.2,20.642-10.2-20.642-30.095Z" transform="translate(-7655.104 -556.822)" fill="#66a1d3" stroke="#66a1d3" stroke-width="0.75" opacity="0.06"/>
      <path id="Path_339" data-name="Path 339" d="M7735.893,663.447l-13.15-6.5,13.15-19.173,13.15,19.173Zm-12.627-6.633,12.627,6.239,12.628-6.239L7735.893,638.4Z" transform="translate(-7682.41 -589.503)" fill="#66a1d3" stroke="#66a1d3" stroke-width="0.75" opacity="0.04"/>
      <path id="Path_340" data-name="Path 340" d="M7759.638,686.6l-6.182-3.054,6.182-9.012,6.181,9.012Zm-6.007-3.1,6.007,2.968,6.007-2.968-6.007-8.758Z" transform="translate(-7706.156 -617.923)" fill="#66a1d3" stroke="#66a1d3" stroke-width="0.75" opacity="0.03"/>
    </g>
    <g id="Group_124" data-name="Group 124" transform="translate(7580.177 455.459)">
      <path id="Path_341" data-name="Path 341" d="M7779.79,613.246a.777.777,0,0,0-1.544,0,6.728,6.728,0,0,1,1.544,0Z" transform="translate(-7760.507 -600.438)" fill="#66a1d3"/>
      <path id="Path_342" data-name="Path 342" d="M7705.5,567.017h31.452v4.862h1.966v-7.811a4.92,4.92,0,0,0-4.915-4.914h-25.555a4.92,4.92,0,0,0-4.915,4.914v7.667h1.966Zm0-2.949a2.952,2.952,0,0,1,2.949-2.948h25.555a2.952,2.952,0,0,1,2.948,2.948v.983H7705.5Z" transform="translate(-7702.749 -559.154)" fill="#66a1d3"/>
      <path id="Path_343" data-name="Path 343" d="M7736.954,755.522v3.932H7705.5v-4.781h-1.966v9.7a4.921,4.921,0,0,0,4.915,4.914h25.555a4.92,4.92,0,0,0,4.915-4.914v-9.7h-1.966Zm0,8.846a2.952,2.952,0,0,1-2.948,2.949h-25.555a2.952,2.952,0,0,1-2.949-2.949v-2.949h31.452Z" transform="translate(-7702.749 -710.309)" fill="#66a1d3"/>
      <rect id="Rectangle_1600" data-name="Rectangle 1600" width="1.966" height="1.966" transform="translate(17.496 53.076)" fill="#66a1d3"/>
      <g id="Group_123" data-name="Group 123" transform="translate(0 10.547)">
        <path id="Path_344" data-name="Path 344" d="M7770.333,659.235a3.324,3.324,0,0,1-3.32-3.32v-2.391a3.32,3.32,0,0,1,6.641,0v2.391A3.324,3.324,0,0,1,7770.333,659.235Zm0-7.738a2.03,2.03,0,0,0-2.027,2.027v2.391a2.027,2.027,0,0,0,4.055,0v-2.391A2.03,2.03,0,0,0,7770.333,651.5Z" transform="translate(-7751.822 -640.091)" fill="#66a1d3"/>
        <path id="Path_345" data-name="Path 345" d="M7764.848,695.466h-6.731a2.465,2.465,0,0,1-2.462-2.462v-2.47c0-1.348,1.83-2.24,2.2-2.4a.665.665,0,0,1,.091-.033l2.639-.741a.646.646,0,1,1,.35,1.245l-2.591.727c-.665.312-1.393.884-1.393,1.207V693a1.171,1.171,0,0,0,1.169,1.169h6.731a1.17,1.17,0,0,0,1.169-1.169v-2.47c0-.322-.727-.894-1.393-1.207l-2.53-.71a.647.647,0,1,1,.35-1.245l2.579.724a.665.665,0,0,1,.091.033c.366.165,2.2,1.057,2.2,2.4V693A2.465,2.465,0,0,1,7764.848,695.466Z" transform="translate(-7743.042 -668.795)" fill="#66a1d3"/>
        <path id="Path_346" data-name="Path 346" d="M7775.934,686.287a.647.647,0,0,1-.646-.646v-.686a.646.646,0,0,1,1.293,0v.686A.646.646,0,0,1,7775.934,686.287Z" transform="translate(-7758.219 -666.457)" fill="#66a1d3"/>
        <path id="Path_347" data-name="Path 347" d="M7782.6,686.3a.647.647,0,0,1-.647-.646v-.7a.647.647,0,0,1,1.293,0v.7A.646.646,0,0,1,7782.6,686.3Z" transform="translate(-7763.373 -666.457)" fill="#66a1d3"/>
        <path id="Path_348" data-name="Path 348" d="M7773.787,692.191c-1.243,0-2.217-1.227-2.217-2.793a3.589,3.589,0,0,1,.036-.5.646.646,0,1,1,1.279.184,2.461,2.461,0,0,0-.022.32c0,.884.487,1.5.924,1.5s.923-.616.923-1.5a2.3,2.3,0,0,0-.022-.32.646.646,0,1,1,1.279-.184,3.448,3.448,0,0,1,.036.5C7776,690.964,7775.029,692.191,7773.787,692.191Z" transform="translate(-7755.346 -669.574)" fill="#66a1d3"/>
        <path id="Path_349" data-name="Path 349" d="M7771.3,659.906a2.163,2.163,0,0,1-.918-.2,2.423,2.423,0,0,1-.767-.588c-.146-.154-.2-.209-.28-.227-.094-.021-.459-.03-1.2.767a.646.646,0,1,1-.948-.878c.876-.947,1.673-1.323,2.434-1.149a1.8,1.8,0,0,1,.93.6,1.218,1.218,0,0,0,.37.3c.39.18.985.043,1.77-.405a.646.646,0,1,1,.642,1.122A4.2,4.2,0,0,1,7771.3,659.906Z" transform="translate(-7751.823 -645.803)" fill="#66a1d3"/>
        <path id="Path_350" data-name="Path 350" d="M7745.148,661.372a10.712,10.712,0,1,1,10.712-10.712A10.724,10.724,0,0,1,7745.148,661.372Zm0-20.13a9.419,9.419,0,1,0,9.419,9.419A9.43,9.43,0,0,0,7745.148,641.241Z" transform="translate(-7726.638 -632.163)" fill="#66a1d3"/>
        <path id="Path_351" data-name="Path 351" d="M7810.768,648.213a.647.647,0,0,1-.457-1.1l1.795-1.795a.646.646,0,0,1,.914.914l-1.8,1.8A.646.646,0,0,1,7810.768,648.213Z" transform="translate(-7785.15 -636.164)" fill="#66a1d3"/>
        <path id="Path_352" data-name="Path 352" d="M7818.188,637.05a2.343,2.343,0,1,1,1.656-.686A2.325,2.325,0,0,1,7818.188,637.05Zm0-3.392a1.048,1.048,0,1,0,.742.307A1.046,1.046,0,0,0,7818.188,633.658Z" transform="translate(-7789.575 -626.3)" fill="#66a1d3"/>
        <path id="Path_353" data-name="Path 353" d="M7740.2,719.434a.646.646,0,0,1-.457-1.1l1.792-1.793.46.454.452.462,0,0-1.788,1.787A.644.644,0,0,1,7740.2,719.434Z" transform="translate(-7730.596 -691.374)" fill="#66a1d3"/>
        <path id="Path_354" data-name="Path 354" d="M7729.139,726.1a2.343,2.343,0,1,1,1.656-.686A2.326,2.326,0,0,1,7729.139,726.1Zm0-3.392a1.05,1.05,0,1,0,.742.307A1.043,1.043,0,0,0,7729.139,722.705Z" transform="translate(-7720.731 -695.142)" fill="#66a1d3"/>
        <path id="Path_355" data-name="Path 355" d="M7742,648.213a.645.645,0,0,1-.456-.188l-1.8-1.8a.646.646,0,0,1,.914-.914l1.794,1.795a.646.646,0,0,1-.456,1.1Z" transform="translate(-7730.596 -636.164)" fill="#66a1d3"/>
        <path id="Path_356" data-name="Path 356" d="M7729.139,637.05a2.343,2.343,0,1,1,1.656-.686A2.327,2.327,0,0,1,7729.139,637.05Zm0-3.392a1.05,1.05,0,1,0,.742.307A1.042,1.042,0,0,0,7729.139,633.658Z" transform="translate(-7720.731 -626.3)" fill="#66a1d3"/>
        <path id="Path_357" data-name="Path 357" d="M7812.57,718.782a.644.644,0,0,1-.457-.189l-1.792-1.792a.646.646,0,0,1,.905-.923l0,0,1.8,1.8a.647.647,0,0,1-.457,1.1Z" transform="translate(-7785.157 -690.722)" fill="#66a1d3"/>
        <path id="Path_358" data-name="Path 358" d="M7818.188,726.1a2.343,2.343,0,1,1,1.656-.686A2.325,2.325,0,0,1,7818.188,726.1Zm0-3.392a1.048,1.048,0,1,0,.742.307A1.047,1.047,0,0,0,7818.188,722.705Z" transform="translate(-7789.575 -695.142)" fill="#66a1d3"/>
        <path id="Path_359" data-name="Path 359" d="M7826.779,685.654h-3a.652.652,0,0,1-.652-.646.641.641,0,0,1,.64-.646h3.013a.646.646,0,1,1,0,1.293Z" transform="translate(-7795.204 -666.498)" fill="#66a1d3"/>
        <path id="Path_360" data-name="Path 360" d="M7839.426,679.883a3.045,3.045,0,1,1,3.046-3.045A3.049,3.049,0,0,1,7839.426,679.883Zm0-4.8a1.752,1.752,0,1,0,1.753,1.752A1.754,1.754,0,0,0,7839.426,675.086Z" transform="translate(-7805.451 -658.328)" fill="#66a1d3"/>
        <path id="Path_361" data-name="Path 361" d="M7724.869,685.654h-3.013a.646.646,0,1,1,0-1.293h3a.651.651,0,0,1,.652.646A.641.641,0,0,1,7724.869,685.654Z" transform="translate(-7716.413 -666.498)" fill="#66a1d3"/>
        <path id="Path_362" data-name="Path 362" d="M7703.112,679.883a3.045,3.045,0,1,1,3.046-3.045A3.049,3.049,0,0,1,7703.112,679.883Zm0-4.8a1.752,1.752,0,1,0,1.753,1.752A1.754,1.754,0,0,0,7703.112,675.086Z" transform="translate(-7700.067 -658.328)" fill="#66a1d3"/>
        <path id="Path_363" data-name="Path 363" d="M7779.444,631.085a.647.647,0,0,1-.647-.646v-3.013a.647.647,0,0,1,1.294,0v3.013A.647.647,0,0,1,7779.444,631.085Z" transform="translate(-7760.933 -621.982)" fill="#66a1d3"/>
        <path id="Path_364" data-name="Path 364" d="M7771.27,611.726a3.045,3.045,0,1,1,3.045-3.045A3.049,3.049,0,0,1,7771.27,611.726Zm0-4.8a1.752,1.752,0,1,0,1.752,1.752A1.754,1.754,0,0,0,7771.27,606.929Z" transform="translate(-7752.76 -605.636)" fill="#66a1d3"/>
        <path id="Path_365" data-name="Path 365" d="M7779.444,733.013a.647.647,0,0,1-.647-.647v-3.052a.647.647,0,0,1,1.294,0v3.052A.647.647,0,0,1,7779.444,733.013Z" transform="translate(-7760.933 -700.752)" fill="#66a1d3"/>
        <path id="Path_366" data-name="Path 366" d="M7771.27,748.208a3.045,3.045,0,1,1,3.045-3.045A3.049,3.049,0,0,1,7771.27,748.208Zm0-4.8a1.752,1.752,0,1,0,1.752,1.752A1.754,1.754,0,0,0,7771.27,743.411Z" transform="translate(-7752.76 -711.15)" fill="#66a1d3"/>
      </g>
    </g>
  </g>
</svg>
