<svg xmlns="http://www.w3.org/2000/svg" width="105.982" height="103.439" viewBox="0 0 105.982 103.439">
  <g id="Group_699" data-name="Group 699" transform="translate(-10558.261 -469.127)">
    <g id="Group_88" data-name="Group 88" transform="translate(10558.63 469.569)" opacity="0.12">
      <rect id="Rectangle_1549" data-name="Rectangle 1549" width="25.27" height="1.16" transform="matrix(0.566, -0.825, 0.825, 0.566, 12.291, 58.801)" fill="#fbba06" stroke="#fbba06" stroke-width="0.5"/>
      <path id="Path_201" data-name="Path 201" d="M10578.613,763.623l-19.983-9.873,5.9-8.6.957.656-5.144,7.5,18.783,9.28Z" transform="translate(-10558.63 -677.029)" fill="#fbba06" stroke="#fbba06" stroke-width="0.5"/>
      <path id="Path_202" data-name="Path 202" d="M10738.859,865.827l-10.721-5.3.513-1.04,10.208,5.043,9.76-4.821.513,1.04Z" transform="translate(-10686.239 -763.109)" fill="#fbba06" stroke="#fbba06" stroke-width="0.5"/>
      <path id="Path_203" data-name="Path 203" d="M10937.016,734.29l-.516-1.041,8.627-4.261-10.621-15.483.957-.656,11.377,16.587Z" transform="translate(-10841.596 -652.714)" fill="#fbba06" stroke="#fbba06" stroke-width="0.5"/>
      <path id="Path_204" data-name="Path 204" d="M10724.878,487.378l-.957-.656,11.766-17.152,11.531,16.814-.957.656-10.574-15.418Z" transform="translate(-10683.063 -469.569)" fill="#fbba06" stroke="#fbba06" stroke-width="0.5"/>
      <rect id="Rectangle_1550" data-name="Rectangle 1550" width="1.161" height="27.506" transform="matrix(0.443, -0.897, 0.897, 0.443, 18.905, 81.79)" fill="#fbba06" stroke="#fbba06" stroke-width="0.5"/>
      <path id="Path_205" data-name="Path 205" d="M10916.065,731.977l-.514-1.041,9.056-4.473-9.845-14.351.957-.656,10.6,15.455Z" transform="translate(-10826.733 -651.666)" fill="#fbba06" stroke="#fbba06" stroke-width="0.5"/>
      <rect id="Rectangle_1551" data-name="Rectangle 1551" width="1.16" height="43.291" transform="matrix(0.825, -0.566, 0.566, 0.825, 63.543, 24.746)" fill="#fbba06" stroke="#fbba06" stroke-width="0.5"/>
      <g id="Group_87" data-name="Group 87" transform="translate(11.571 13.234)">
        <g id="Group_85" data-name="Group 85" transform="translate(0 52.735)">
          <path id="Path_206" data-name="Path 206" d="M10648.461,788.7a.061.061,0,0,1-.026-.006l-.936-.462a.057.057,0,0,1-.026-.078.057.057,0,0,1,.077-.026l.937.462a.058.058,0,0,1,.026.078A.057.057,0,0,1,10648.461,788.7Z" transform="translate(-10637.077 -775.347)" fill="#fbba06" stroke="#fbba06" stroke-width="0.5"/>
          <path id="Path_207" data-name="Path 207" d="M10622.679,775.957a.064.064,0,0,1-.026-.006l-1.885-.931a.058.058,0,0,1-.026-.078.059.059,0,0,1,.078-.026l1.885.931a.057.057,0,0,1,.026.078A.058.058,0,0,1,10622.679,775.957Zm-3.77-1.863a.061.061,0,0,1-.026-.006l-1.885-.931a.058.058,0,1,1,.052-.1l1.885.931a.058.058,0,0,1-.025.11Z" transform="translate(-10614.116 -764.003)" fill="#fbba06" stroke="#fbba06" stroke-width="0.5"/>
          <path id="Path_208" data-name="Path 208" d="M10606.462,765.364a.055.055,0,0,1-.024-.006l-1-.492.628-.916a.056.056,0,0,1,.079-.015.058.058,0,0,1,.018.081l-.554.806.876.433a.057.057,0,0,1,.026.078A.058.058,0,0,1,10606.462,765.364Z" transform="translate(-10605.441 -757.134)" fill="#fbba06" stroke="#fbba06" stroke-width="0.5"/>
          <path id="Path_209" data-name="Path 209" d="M10613.484,750.026a.06.06,0,0,1-.032-.01.057.057,0,0,1-.015-.081l1.355-1.976a.058.058,0,0,1,.1.065l-1.356,1.976A.057.057,0,0,1,10613.484,750.026Z" transform="translate(-10611.453 -745.096)" fill="#fbba06" stroke="#fbba06" stroke-width="0.5"/>
          <path id="Path_210" data-name="Path 210" d="M10624.45,737.431a.058.058,0,0,1-.033-.01.06.06,0,0,1-.016-.081l.591-.861a.058.058,0,0,1,.081-.015.058.058,0,0,1,.016.081l-.591.861A.06.06,0,0,1,10624.45,737.431Z" transform="translate(-10619.707 -736.454)" fill="#fbba06" stroke="#fbba06" stroke-width="0.5"/>
        </g>
        <g id="Group_86" data-name="Group 86" transform="translate(11.324 65.968)">
          <path id="Path_211" data-name="Path 211" d="M10731.1,829.521a.053.053,0,0,1-.025-.006l-.937-.462a.058.058,0,1,1,.052-.1l.936.463a.06.06,0,0,1,.027.078A.059.059,0,0,1,10731.1,829.521Z" transform="translate(-10710.613 -819.313)" fill="#fbba06" stroke="#fbba06" stroke-width="0.5"/>
          <path id="Path_212" data-name="Path 212" d="M10677.873,803.225a.06.06,0,0,1-.026-.006l-2.062-1.019a.058.058,0,0,1,.051-.1l2.062,1.019a.058.058,0,0,1-.024.11Zm-4.124-2.037a.056.056,0,0,1-.025-.006l-2.061-1.018a.057.057,0,0,1-.026-.078.057.057,0,0,1,.077-.026l2.062,1.018a.058.058,0,0,1,.026.078A.059.059,0,0,1,10673.749,801.188Zm-4.122-2.037a.053.053,0,0,1-.025-.006l-2.062-1.018a.058.058,0,0,1,.052-.1l2.062,1.018a.058.058,0,0,1-.025.11Zm-4.123-2.037a.054.054,0,0,1-.025-.006l-2.062-1.018a.058.058,0,0,1-.025-.078.057.057,0,0,1,.077-.026l2.063,1.018a.058.058,0,0,1-.026.11Z" transform="translate(-10660.388 -794.499)" fill="#fbba06" stroke="#fbba06" stroke-width="0.5"/>
          <path id="Path_213" data-name="Path 213" d="M10652.25,790.567a.067.067,0,0,1-.026-.006l-.936-.463a.058.058,0,1,1,.051-.1l.936.463a.058.058,0,0,1-.024.11Z" transform="translate(-10651.255 -789.988)" fill="#fbba06" stroke="#fbba06" stroke-width="0.5"/>
        </g>
        <path id="Path_214" data-name="Path 214" d="M10742.82,831.157l-9.422-4.655.359-.728,9.063,4.477,11.59-5.726.359.728Z" transform="translate(-10701.77 -750.02)" fill="#fbba06" stroke="#fbba06" stroke-width="0.5"/>
        <rect id="Rectangle_1552" data-name="Rectangle 1552" width="16.59" height="0.812" transform="translate(58.643 71.539) rotate(-26.29)" fill="#fbba06" stroke="#fbba06" stroke-width="0.5"/>
        <path id="Path_215" data-name="Path 215" d="M10896.85,722.779a.06.06,0,0,1-.053-.032.058.058,0,0,1,.026-.078l1.874-.925a.058.058,0,0,1,.077.026.06.06,0,0,1-.026.078l-1.873.925A.056.056,0,0,1,10896.85,722.779Zm3.745-1.851a.058.058,0,0,1-.052-.032.057.057,0,0,1,.026-.078l1.873-.925a.058.058,0,0,1,.051.1l-1.873.925A.057.057,0,0,1,10900.595,720.928Zm3.138-2.009a.058.058,0,0,1-.049-.025l-1.182-1.723a.059.059,0,0,1,.017-.081.057.057,0,0,1,.08.015l1.182,1.723a.058.058,0,0,1-.015.08A.061.061,0,0,1,10903.732,718.918Zm-2.362-3.445a.058.058,0,0,1-.049-.025l-1.182-1.723a.058.058,0,0,1,.1-.066l1.182,1.723a.058.058,0,0,1-.015.081A.059.059,0,0,1,10901.37,715.473Zm-2.364-3.445a.059.059,0,0,1-.048-.025l-1.182-1.723a.058.058,0,0,1,.1-.066l1.182,1.723a.059.059,0,0,1-.016.081A.061.061,0,0,1,10899.006,712.028Zm-2.362-3.445a.059.059,0,0,1-.049-.025l-1.182-1.723a.058.058,0,0,1,.1-.066l1.181,1.723a.058.058,0,0,1-.047.091Zm-2.363-3.445a.058.058,0,0,1-.049-.025l-1.181-1.723a.058.058,0,0,1,.015-.081.058.058,0,0,1,.081.015l1.182,1.723a.059.059,0,0,1-.016.081A.055.055,0,0,1,10894.28,705.137Z" transform="translate(-10821.951 -658.759)" fill="#fbba06" stroke="#fbba06" stroke-width="0.5"/>
        <path id="Path_216" data-name="Path 216" d="M10831.862,614.134a.059.059,0,0,1-.048-.025l-1.181-1.723a.058.058,0,0,1,.014-.081.06.06,0,0,1,.082.015l1.182,1.723a.06.06,0,0,1-.016.081A.058.058,0,0,1,10831.862,614.134Zm-2.363-3.445a.059.059,0,0,1-.048-.025l-1.182-1.723a.06.06,0,0,1,.016-.081.058.058,0,0,1,.081.015l1.182,1.723a.059.059,0,0,1-.016.081A.055.055,0,0,1,10829.5,610.689Zm-2.362-3.445a.058.058,0,0,1-.048-.025l-1.182-1.723a.057.057,0,0,1,.015-.081.058.058,0,0,1,.081.015l1.182,1.723a.057.057,0,0,1-.016.081A.056.056,0,0,1,10827.137,607.243Zm-2.363-3.445a.058.058,0,0,1-.048-.025l-1.182-1.723a.058.058,0,0,1,.015-.081.059.059,0,0,1,.082.015l1.181,1.723a.058.058,0,0,1-.016.081A.054.054,0,0,1,10824.773,603.8Zm-2.363-3.445a.06.06,0,0,1-.048-.025l-1.182-1.723a.058.058,0,0,1,.015-.081.06.06,0,0,1,.082.015l1.181,1.723a.058.058,0,0,1-.015.081A.06.06,0,0,1,10822.41,600.353Zm-2.363-3.445a.06.06,0,0,1-.048-.025l-1.181-1.723a.058.058,0,0,1,.014-.081.059.059,0,0,1,.082.015l1.182,1.723a.059.059,0,0,1-.016.081A.058.058,0,0,1,10820.047,596.908Zm-2.363-3.445a.057.057,0,0,1-.047-.025l-1.182-1.723a.058.058,0,1,1,.1-.065l1.183,1.723a.06.06,0,0,1-.017.081A.057.057,0,0,1,10817.684,593.462Zm-2.362-3.445a.058.058,0,0,1-.048-.025l-1.181-1.723a.057.057,0,0,1,.014-.081.059.059,0,0,1,.082.015l1.181,1.723a.058.058,0,0,1-.015.081A.06.06,0,0,1,10815.321,590.017Zm-2.363-3.445a.059.059,0,0,1-.048-.025l-1.181-1.723a.057.057,0,0,1,.014-.081.059.059,0,0,1,.082.015l1.182,1.723a.059.059,0,0,1-.049.091Z" transform="translate(-10760.73 -569.5)" fill="#fbba06" stroke="#fbba06" stroke-width="0.5"/>
        <path id="Path_217" data-name="Path 217" d="M10727.034,539.839l-.671-.46,11.161-16.272,10.331,15.061-.671.459-9.66-14.084Z" transform="translate(-10696.473 -523.107)" fill="#fbba06" stroke="#fbba06" stroke-width="0.5"/>
        <rect id="Rectangle_1553" data-name="Rectangle 1553" width="19.281" height="0.812" transform="translate(12.21 42.051) rotate(-55.557)" fill="#fbba06" stroke="#fbba06" stroke-width="0.5"/>
        <rect id="Rectangle_1554" data-name="Rectangle 1554" width="12.749" height="0.812" transform="translate(4.999 52.564) rotate(-55.557)" fill="#fbba06" stroke="#fbba06" stroke-width="0.5"/>
      </g>
      <path id="Path_218" data-name="Path 218" d="M10668.941,627.033l-.129-.064-33.552-16.576,33.681-49.1,33.68,49.1Zm-32.823-16.863,32.823,16.216,32.822-16.216-32.822-47.855Z" transform="translate(-10616.318 -538.618)" fill="#fbba06" stroke="#fbba06" stroke-width="0.5" opacity="0.1"/>
      <path id="Path_219" data-name="Path 219" d="M10687.735,644.868l-27.51-13.591.113-.166,27.4-39.942,27.509,40.108-.181.089Zm-27-13.725,27,13.337,26.993-13.337-26.993-39.358Z" transform="translate(-10635.113 -561.113)" fill="#fbba06" stroke="#fbba06" stroke-width="0.5" opacity="0.08"/>
      <path id="Path_220" data-name="Path 220" d="M10708.1,664.191l-20.823-10.288,20.823-30.361,20.824,30.361Zm-20.31-10.422,20.31,10.034,20.31-10.034-20.31-29.611Z" transform="translate(-10655.475 -585.483)" fill="#fbba06" stroke="#fbba06" stroke-width="0.5" opacity="0.06"/>
      <path id="Path_221" data-name="Path 221" d="M10732.112,686.98l-12.938-6.392,12.938-18.864,12.938,18.864Zm-12.425-6.526,12.425,6.138,12.424-6.138-12.424-18.115Z" transform="translate(-10679.491 -614.227)" fill="#fbba06" stroke="#fbba06" stroke-width="0.5" opacity="0.04"/>
      <path id="Path_222" data-name="Path 222" d="M10752.993,706.8l-6.08-3,6.08-8.867,6.083,8.867Zm-5.909-3.049,5.909,2.92,5.911-2.92-5.911-8.617Z" transform="translate(-10700.374 -639.222)" fill="#fbba06" stroke="#fbba06" stroke-width="0.5" opacity="0.03"/>
    </g>
    <g id="Group_89" data-name="Group 89" transform="translate(10577.66 499.513)">
      <path id="Path_223" data-name="Path 223" d="M10698.105,590.712h-58.025a4.468,4.468,0,0,0-4.462,4.463v37.939a4.468,4.468,0,0,0,4.462,4.463h21.935l-2.679,8.927h-2.518v2.232h24.55V646.5h-2.518l-1.1-3.668-2.138.642.908,3.027h-14.854l2.917-9.722a1.117,1.117,0,0,0-1.069-1.436h-23.434a2.234,2.234,0,0,1-2.23-2.232v-2.232h22.316v-2.232h-22.316V595.175a2.234,2.234,0,0,1,2.23-2.232h58.025a2.233,2.233,0,0,1,2.231,2.232v33.476h-5.579v2.232h5.579v2.232a2.239,2.239,0,0,1-.743,1.663l1.487,1.663a4.47,4.47,0,0,0,1.488-3.326V595.175A4.469,4.469,0,0,0,10698.105,590.712Z" transform="translate(-10635.618 -590.712)" fill="#fbba06"/>
      <rect id="Rectangle_1555" data-name="Rectangle 1555" width="2.232" height="2.232" transform="translate(60.256 33.476)" fill="#fbba06"/>
      <path id="Path_224" data-name="Path 224" d="M10653.675,694.389h18.969a1.116,1.116,0,0,0,1.116-1.116V682.115a1.116,1.116,0,0,0-1.116-1.116h-4.463a1.115,1.115,0,0,0-1.115,1.116v10.043h-2.232v-7.811a1.115,1.115,0,0,0-1.115-1.116h-4.464a1.115,1.115,0,0,0-1.115,1.116v7.811h-4.464Zm15.622-11.159h2.231v8.927h-2.231Zm-8.927,2.232h2.231v6.7h-2.231Z" transform="translate(-10649.212 -658.682)" fill="#fbba06"/>
      <path id="Path_225" data-name="Path 225" d="M10750.656,658.376v-3.348a1.115,1.115,0,0,0-1.115-1.116h-4.464a1.115,1.115,0,0,0-1.115,1.116v7.811h2.231v-6.7h2.23v2.232Z" transform="translate(-10717.182 -638.291)" fill="#fbba06"/>
      <path id="Path_226" data-name="Path 226" d="M10786.771,634.638v-6.7a1.116,1.116,0,0,0-1.116-1.116h-4.463a1.116,1.116,0,0,0-1.116,1.116v7.811h2.232v-6.7h2.231v5.579Z" transform="translate(-10744.369 -617.9)" fill="#fbba06"/>
      <path id="Path_227" data-name="Path 227" d="M10822.888,650.463V646a1.117,1.117,0,0,0-1.117-1.116h-4.464a1.115,1.115,0,0,0-1.114,1.116v3.348h2.23v-2.232h2.232v3.348Z" transform="translate(-10771.559 -631.494)" fill="#fbba06"/>
      <path id="Path_228" data-name="Path 228" d="M10857.887,617.8h-4.465a1.116,1.116,0,0,0-1.115,1.116V632.3h2.231V620.03h2.23V639H10859V618.914A1.116,1.116,0,0,0,10857.887,617.8Z" transform="translate(-10798.746 -611.103)" fill="#fbba06"/>
      <rect id="Rectangle_1556" data-name="Rectangle 1556" width="2.232" height="2.232" transform="translate(5.579 4.463)" fill="#fbba06"/>
      <rect id="Rectangle_1557" data-name="Rectangle 1557" width="2.232" height="2.232" transform="translate(10.043 4.463)" fill="#fbba06"/>
      <rect id="Rectangle_1558" data-name="Rectangle 1558" width="2.232" height="2.232" transform="translate(14.506 4.463)" fill="#fbba06"/>
      <path id="Path_229" data-name="Path 229" d="M10773.222,690.675a15.683,15.683,0,1,0-4.674,5.177l9.639,9.639a3.483,3.483,0,0,0,4.926-4.925Zm-27.028-7.6a13.39,13.39,0,1,1,13.39,13.39A13.405,13.405,0,0,1,10746.193,683.078Zm34.455,21.2a1.249,1.249,0,0,1-.885-.366l-9.482-9.483a15.605,15.605,0,0,0,1.681-1.86l9.571,9.573a1.251,1.251,0,0,1-.885,2.136Z" transform="translate(-10717.182 -648.486)" fill="#fbba06"/>
      <path id="Path_230" data-name="Path 230" d="M10773.176,685.513a11.159,11.159,0,1,0,11.158,11.159A11.17,11.17,0,0,0,10773.176,685.513Zm0,20.085a8.927,8.927,0,1,1,8.928-8.927A8.937,8.937,0,0,1,10773.176,705.6Z" transform="translate(-10730.775 -662.08)" fill="#fbba06"/>
      <path id="Path_231" data-name="Path 231" d="M10780.076,710.266h2.232a4.469,4.469,0,0,1,4.463-4.464v-2.232A6.7,6.7,0,0,0,10780.076,710.266Z" transform="translate(-10744.369 -675.674)" fill="#fbba06"/>
    </g>
  </g>
</svg>
