<svg xmlns="http://www.w3.org/2000/svg" width="107.942" height="105.353" viewBox="0 0 107.942 105.353">
  <g id="Group_700" data-name="Group 700" transform="translate(-6198.475 -457.583)">
    <g id="Group_94" data-name="Group 94" transform="translate(6199.028 458.246)" opacity="0.12">
      <rect id="Rectangle_1559" data-name="Rectangle 1559" width="25.652" height="1.178" transform="matrix(0.566, -0.825, 0.825, 0.566, 12.477, 59.69)" fill="#f93082" stroke="#f93082" stroke-width="0.75"/>
      <path id="Path_232" data-name="Path 232" d="M6219.315,760.088l-20.287-10.022,5.991-8.734.971.666-5.222,7.613,19.068,9.42Z" transform="translate(-6199.028 -672.185)" fill="#f93082" stroke="#f93082" stroke-width="0.75"/>
      <path id="Path_233" data-name="Path 233" d="M6384.04,865.225l-10.884-5.377.521-1.056,10.363,5.12,9.905-4.893.521,1.056Z" transform="translate(-6330.623 -760.953)" fill="#f93082" stroke="#f93082" stroke-width="0.75"/>
      <path id="Path_234" data-name="Path 234" d="M6587.693,729.92l-.521-1.056,8.755-4.326-10.78-15.718.971-.666,11.549,16.838Z" transform="translate(-6490.833 -647.111)" fill="#f93082" stroke="#f93082" stroke-width="0.75"/>
      <path id="Path_235" data-name="Path 235" d="M6369.8,476.324l-.971-.666,11.942-17.412,11.707,17.068-.972.666-10.735-15.652Z" transform="translate(-6327.35 -458.246)" fill="#f93082" stroke="#f93082" stroke-width="0.75"/>
      <rect id="Rectangle_1560" data-name="Rectangle 1560" width="1.178" height="27.922" transform="matrix(0.443, -0.897, 0.897, 0.443, 19.191, 83.026)" fill="#f93082" stroke="#f93082" stroke-width="0.75"/>
      <path id="Path_236" data-name="Path 236" d="M6566.189,727.555l-.522-1.056,9.192-4.541-9.992-14.568.972-.666,10.76,15.689Z" transform="translate(-6475.507 -646.03)" fill="#f93082" stroke="#f93082" stroke-width="0.75"/>
      <rect id="Rectangle_1561" data-name="Rectangle 1561" width="1.178" height="43.945" transform="matrix(0.825, -0.566, 0.566, 0.825, 64.504, 25.12)" fill="#f93082" stroke="#f93082" stroke-width="0.75"/>
      <g id="Group_93" data-name="Group 93" transform="translate(11.745 13.434)">
        <g id="Group_91" data-name="Group 91" transform="translate(0 53.533)">
          <path id="Path_237" data-name="Path 237" d="M6291.3,786.061a.062.062,0,0,1-.027-.006l-.95-.469a.059.059,0,0,1-.027-.079.06.06,0,0,1,.08-.027l.95.47a.058.058,0,0,1,.027.079A.059.059,0,0,1,6291.3,786.061Z" transform="translate(-6279.74 -772.51)" fill="#f93082" stroke="#f93082" stroke-width="0.75"/>
          <path id="Path_238" data-name="Path 238" d="M6264.753,772.948a.06.06,0,0,1-.026-.006l-1.913-.945a.059.059,0,0,1-.027-.079.059.059,0,0,1,.079-.027l1.914.945a.059.059,0,0,1-.026.112Zm-3.827-1.891a.056.056,0,0,1-.026-.006l-1.913-.945a.059.059,0,1,1,.052-.106l1.914.945a.059.059,0,0,1-.026.112Z" transform="translate(-6256.062 -760.812)" fill="#f93082" stroke="#f93082" stroke-width="0.75"/>
          <path id="Path_239" data-name="Path 239" d="M6248.152,762.084a.064.064,0,0,1-.027-.006l-1.011-.5.638-.93a.059.059,0,0,1,.1.066l-.562.819.89.439a.059.059,0,0,1-.026.112Z" transform="translate(-6247.114 -753.729)" fill="#f93082" stroke="#f93082" stroke-width="0.75"/>
          <path id="Path_240" data-name="Path 240" d="M6255.377,746.319a.057.057,0,0,1-.033-.011.058.058,0,0,1-.016-.082l1.376-2.006a.059.059,0,1,1,.1.067l-1.375,2.006A.061.061,0,0,1,6255.377,746.319Z" transform="translate(-6253.314 -741.315)" fill="#f93082" stroke="#f93082" stroke-width="0.75"/>
          <path id="Path_241" data-name="Path 241" d="M6266.643,733.4a.059.059,0,0,1-.034-.011.06.06,0,0,1-.016-.082l.6-.874a.059.059,0,0,1,.082-.015.058.058,0,0,1,.015.082l-.6.874A.061.061,0,0,1,6266.643,733.4Z" transform="translate(-6261.828 -732.403)" fill="#f93082" stroke="#f93082" stroke-width="0.75"/>
        </g>
        <g id="Group_92" data-name="Group 92" transform="translate(11.496 66.965)">
          <path id="Path_242" data-name="Path 242" d="M6376.183,828a.056.056,0,0,1-.026-.006l-.951-.469a.059.059,0,0,1,.052-.106l.951.47a.059.059,0,0,1-.026.112Z" transform="translate(-6355.39 -817.636)" fill="#f93082" stroke="#f93082" stroke-width="0.75"/>
          <path id="Path_243" data-name="Path 243" d="M6321.345,800.906a.06.06,0,0,1-.026-.006l-2.093-1.034a.059.059,0,0,1,.053-.106l2.092,1.034a.059.059,0,0,1-.025.112Zm-4.186-2.068a.058.058,0,0,1-.026-.006l-2.093-1.034a.059.059,0,0,1,.052-.106l2.093,1.034a.059.059,0,0,1,.026.079A.058.058,0,0,1,6317.159,798.838Zm-4.185-2.068a.062.062,0,0,1-.026-.006l-2.093-1.034a.059.059,0,1,1,.052-.106l2.092,1.034a.059.059,0,0,1-.026.112Zm-4.185-2.067a.059.059,0,0,1-.026-.006l-2.093-1.034a.059.059,0,0,1,.053-.106l2.092,1.034a.059.059,0,0,1-.026.112Z" transform="translate(-6303.594 -792.047)" fill="#f93082" stroke="#f93082" stroke-width="0.75"/>
          <path id="Path_244" data-name="Path 244" d="M6295.188,787.983a.056.056,0,0,1-.025-.006l-.951-.47a.059.059,0,1,1,.052-.105l.951.469a.059.059,0,0,1-.026.112Z" transform="translate(-6294.178 -787.396)" fill="#f93082" stroke="#f93082" stroke-width="0.75"/>
        </g>
        <path id="Path_245" data-name="Path 245" d="M6388.123,829.606l-9.564-4.725.366-.739,9.2,4.545,11.765-5.812.365.739Z" transform="translate(-6346.452 -747.243)" fill="#f93082" stroke="#f93082" stroke-width="0.75"/>
        <rect id="Rectangle_1562" data-name="Rectangle 1562" width="16.841" height="0.825" transform="translate(59.529 72.621) rotate(-26.29)" fill="#f93082" stroke="#f93082" stroke-width="0.75"/>
        <path id="Path_246" data-name="Path 246" d="M6546.419,718.118a.059.059,0,0,1-.026-.112l1.9-.939a.059.059,0,0,1,.052.106l-1.9.939A.064.064,0,0,1,6546.419,718.118Zm3.8-1.878a.059.059,0,0,1-.026-.112l1.9-.939a.058.058,0,0,1,.078.027.059.059,0,0,1-.026.079l-1.9.939A.061.061,0,0,1,6550.222,716.24Zm3.184-2.04a.058.058,0,0,1-.047-.026l-1.2-1.749a.06.06,0,0,1,.015-.082.059.059,0,0,1,.083.015l1.2,1.749a.059.059,0,0,1-.015.082A.057.057,0,0,1,6553.405,714.2Zm-2.4-3.5a.06.06,0,0,1-.049-.026l-1.2-1.749a.059.059,0,1,1,.1-.067l1.2,1.749a.059.059,0,0,1-.048.092Zm-2.4-3.5a.06.06,0,0,1-.049-.026l-1.2-1.749a.059.059,0,0,1,.1-.067l1.2,1.749a.058.058,0,0,1-.015.082A.062.062,0,0,1,6548.608,707.206Zm-2.4-3.5a.06.06,0,0,1-.048-.026l-1.2-1.749a.059.059,0,0,1,.1-.067l1.2,1.749a.06.06,0,0,1-.015.082A.062.062,0,0,1,6546.209,703.708Zm-2.4-3.5a.057.057,0,0,1-.048-.026l-1.2-1.749a.059.059,0,1,1,.1-.067l1.2,1.749a.059.059,0,0,1-.015.082A.056.056,0,0,1,6543.811,700.211Z" transform="translate(-6470.388 -653.131)" fill="#f93082" stroke="#f93082" stroke-width="0.75"/>
        <path id="Path_247" data-name="Path 247" d="M6479.463,606.394a.059.059,0,0,1-.049-.026l-1.2-1.749a.059.059,0,0,1,.1-.067l1.2,1.749a.06.06,0,0,1-.015.082A.057.057,0,0,1,6479.463,606.394Zm-2.4-3.5a.058.058,0,0,1-.048-.026l-1.2-1.749a.059.059,0,0,1,.1-.067l1.2,1.749a.059.059,0,0,1-.016.082A.058.058,0,0,1,6477.064,602.9Zm-2.4-3.5a.061.061,0,0,1-.049-.026l-1.2-1.749a.059.059,0,0,1,.1-.067l1.2,1.749a.06.06,0,0,1-.016.082A.06.06,0,0,1,6474.665,599.4Zm-2.4-3.5a.059.059,0,0,1-.049-.026l-1.2-1.749a.058.058,0,0,1,.016-.082.058.058,0,0,1,.081.015l1.2,1.749a.059.059,0,0,1-.048.092Zm-2.4-3.5a.058.058,0,0,1-.048-.026l-1.2-1.749a.06.06,0,0,1,.015-.082.059.059,0,0,1,.082.015l1.2,1.749a.059.059,0,0,1-.015.082A.056.056,0,0,1,6469.868,592.4Zm-2.4-3.5a.059.059,0,0,1-.049-.026l-1.2-1.749a.059.059,0,1,1,.1-.067l1.2,1.749a.06.06,0,0,1-.015.082A.058.058,0,0,1,6467.469,588.907Zm-2.4-3.5a.06.06,0,0,1-.049-.026l-1.2-1.749a.059.059,0,0,1,.1-.067l1.2,1.749a.059.059,0,0,1-.048.092Zm-2.4-3.5a.06.06,0,0,1-.049-.026l-1.2-1.749a.059.059,0,1,1,.1-.067l1.2,1.749a.059.059,0,0,1-.015.082A.06.06,0,0,1,6462.671,581.912Zm-2.4-3.5a.057.057,0,0,1-.048-.025l-1.2-1.749a.059.059,0,1,1,.1-.067l1.2,1.749a.059.059,0,0,1-.015.082A.055.055,0,0,1,6460.273,578.414Z" transform="translate(-6407.255 -561.085)" fill="#f93082" stroke="#f93082" stroke-width="0.75"/>
        <path id="Path_248" data-name="Path 248" d="M6372.014,530.227l-.68-.466,11.33-16.519,10.487,15.289-.68.466-9.807-14.3Z" transform="translate(-6340.991 -513.243)" fill="#f93082" stroke="#f93082" stroke-width="0.75"/>
        <rect id="Rectangle_1563" data-name="Rectangle 1563" width="19.573" height="0.825" transform="translate(12.395 42.686) rotate(-55.557)" fill="#f93082" stroke="#f93082" stroke-width="0.75"/>
        <rect id="Rectangle_1564" data-name="Rectangle 1564" width="12.941" height="0.825" transform="translate(5.075 53.358) rotate(-55.557)" fill="#f93082" stroke="#f93082" stroke-width="0.75"/>
      </g>
      <path id="Path_249" data-name="Path 249" d="M6311.937,619.2l-.13-.065-34.059-16.826,34.189-49.847,34.189,49.847Zm-33.319-17.118,33.319,16.461,33.319-16.461-33.319-48.579Z" transform="translate(-6258.519 -529.451)" fill="#f93082" stroke="#f93082" stroke-width="0.75" opacity="0.1"/>
      <path id="Path_250" data-name="Path 250" d="M6331.318,637.671l-27.925-13.8.115-.168,27.81-40.546,27.926,40.714-.184.09Zm-27.4-13.932,27.4,13.538,27.4-13.538-27.4-39.953Z" transform="translate(-6277.901 -552.649)" fill="#f93082" stroke="#f93082" stroke-width="0.75" opacity="0.08"/>
      <path id="Path_251" data-name="Path 251" d="M6352.315,657.678l-21.139-10.443,21.139-30.82,21.138,30.82ZM6331.7,647.1l20.617,10.185,20.616-10.185-20.616-30.058Z" transform="translate(-6298.898 -577.78)" fill="#f93082" stroke="#f93082" stroke-width="0.75" opacity="0.06"/>
      <path id="Path_252" data-name="Path 252" d="M6377.08,681.275l-13.134-6.489,13.134-19.149,13.135,19.149Zm-12.612-6.625,12.612,6.231,12.612-6.231-12.612-18.388Z" transform="translate(-6323.663 -607.422)" fill="#f93082" stroke="#f93082" stroke-width="0.75" opacity="0.04"/>
      <path id="Path_253" data-name="Path 253" d="M6398.615,701.8l-6.174-3.05,6.174-9,6.174,9Zm-6-3.1,6,2.964,6-2.964-6-8.748Z" transform="translate(-6345.198 -633.198)" fill="#f93082" stroke="#f93082" stroke-width="0.75" opacity="0.03"/>
    </g>
    <g id="Group_95" data-name="Group 95" transform="translate(6221.768 488.643)">
      <rect id="Rectangle_1565" data-name="Rectangle 1565" width="2.026" height="15.193" transform="translate(54.693 20.414)" fill="#f93082"/>
      <path id="Path_254" data-name="Path 254" d="M6330.948,744.041a1.013,1.013,0,0,0-.971-1.3h-17.218a2.028,2.028,0,0,1-2.025-2.026v-2.026h20.256V736.66h-20.256v-4.051h-2.026v8.1a4.056,4.056,0,0,0,4.052,4.051h15.857l-2.431,8.1H6323.9v2.026h22.283v-2.026H6343.9l-1-3.33-1.94.582.824,2.747H6328.3Z" transform="translate(-6304.655 -695.99)" fill="#f93082"/>
      <rect id="Rectangle_1566" data-name="Rectangle 1566" width="2.026" height="15.193" transform="translate(50.642 20.414)" fill="#f93082"/>
      <rect id="Rectangle_1567" data-name="Rectangle 1567" width="2.026" height="2.026" transform="translate(12.154 6.234)" fill="#f93082"/>
      <rect id="Rectangle_1568" data-name="Rectangle 1568" width="2.026" height="2.026" transform="translate(16.205 6.234)" fill="#f93082"/>
      <rect id="Rectangle_1569" data-name="Rectangle 1569" width="2.026" height="2.026" transform="translate(20.257 6.234)" fill="#f93082"/>
      <rect id="Rectangle_1570" data-name="Rectangle 1570" width="18.231" height="2.026" transform="translate(12.154 10.286)" fill="#f93082"/>
      <rect id="Rectangle_1571" data-name="Rectangle 1571" width="11.141" height="2.026" transform="translate(30.385 22.44)" fill="#f93082"/>
      <rect id="Rectangle_1572" data-name="Rectangle 1572" width="2.026" height="2.026" transform="translate(45.577 22.44)" fill="#f93082"/>
      <rect id="Rectangle_1573" data-name="Rectangle 1573" width="8.103" height="2.026" transform="translate(30.385 26.491)" fill="#f93082"/>
      <rect id="Rectangle_1574" data-name="Rectangle 1574" width="7.09" height="2.026" transform="translate(40.513 26.491)" fill="#f93082"/>
      <rect id="Rectangle_1575" data-name="Rectangle 1575" width="11.141" height="2.026" transform="translate(30.385 30.542)" fill="#f93082"/>
      <rect id="Rectangle_1576" data-name="Rectangle 1576" width="4.051" height="2.026" transform="translate(43.552 30.542)" fill="#f93082"/>
      <path id="Path_255" data-name="Path 255" d="M6445.942,582.69h-17.609a3.525,3.525,0,0,0-3.522,3.522v10.566a3.526,3.526,0,0,0,3.522,3.522h5.283v2.641a.88.88,0,0,0,1.369.733l5.061-3.374h5.9a3.526,3.526,0,0,0,3.522-3.522V586.212A3.526,3.526,0,0,0,6445.942,582.69Zm-17.609,1.761h17.609a1.763,1.763,0,0,1,1.762,1.761v8.44l-2.9-2.9a.878.878,0,0,0-1.172-.065l-3.744,3-5.609-6.41a.882.882,0,0,0-.633-.3.862.862,0,0,0-.651.258l-6.422,6.422v-8.44A1.763,1.763,0,0,1,6428.333,584.451Zm17.609,14.088h-6.163a.883.883,0,0,0-.489.148l-3.914,2.609v-1.877a.881.881,0,0,0-.88-.881h-6.163a1.762,1.762,0,0,1-1.728-1.43l6.967-6.967,5.545,6.336a.879.879,0,0,0,1.211.108l3.788-3.03,3.553,3.554A1.762,1.762,0,0,1,6445.942,598.539Z" transform="translate(-6392.4 -582.69)" fill="#f93082"/>
      <path id="Path_256" data-name="Path 256" d="M6490.046,597.705a3.038,3.038,0,1,0-3.039-3.039A3.042,3.042,0,0,0,6490.046,597.705Zm0-4.051a1.013,1.013,0,1,1-1.013,1.013A1.014,1.014,0,0,1,6490.046,593.654Z" transform="translate(-6439.404 -589.445)" fill="#f93082"/>
      <path id="Path_257" data-name="Path 257" d="M6437.6,724.219h-14.772l-3.755-3.755a1.013,1.013,0,0,0-1.729.716v3.038h-6.077a3.042,3.042,0,0,0-3.038,3.039v8.1a3.042,3.042,0,0,0,3.038,3.038H6437.6a3.042,3.042,0,0,0,3.039-3.038v-8.1A3.042,3.042,0,0,0,6437.6,724.219Zm1.013,11.141a1.014,1.014,0,0,1-1.013,1.013h-26.333a1.014,1.014,0,0,1-1.013-1.013v-8.1a1.014,1.014,0,0,1,1.013-1.013h7.09a1.013,1.013,0,0,0,1.013-1.013v-1.606l2.322,2.322a1.015,1.015,0,0,0,.717.3H6437.6a1.014,1.014,0,0,1,1.013,1.013Z" transform="translate(-6379.865 -686.587)" fill="#f93082"/>
      <rect id="Rectangle_1577" data-name="Rectangle 1577" width="4.051" height="2.026" transform="translate(32.411 41.684)" fill="#f93082"/>
      <rect id="Rectangle_1578" data-name="Rectangle 1578" width="18.231" height="2.026" transform="translate(38.488 41.684)" fill="#f93082"/>
      <rect id="Rectangle_1579" data-name="Rectangle 1579" width="10.128" height="2.026" transform="translate(32.411 45.735)" fill="#f93082"/>
      <rect id="Rectangle_1580" data-name="Rectangle 1580" width="6.077" height="2.026" transform="translate(44.565 45.735)" fill="#f93082"/>
      <rect id="Rectangle_1581" data-name="Rectangle 1581" width="4.051" height="2.026" transform="translate(52.667 45.735)" fill="#f93082"/>
      <path id="Path_258" data-name="Path 258" d="M6296.173,624.039h6.783l5.821,3.881a1.013,1.013,0,0,0,1.575-.843v-3.038h6.077a4.056,4.056,0,0,0,4.052-4.051V607.833a4.056,4.056,0,0,0-4.052-4.051H6298.2a2.028,2.028,0,0,1,2.026-2.026h2.026v-6.077a2.027,2.027,0,0,1,2.025-2.026h18.231v-2.026h-18.231a4.056,4.056,0,0,0-4.051,4.051v4.051a4.056,4.056,0,0,0-4.051,4.051,4.056,4.056,0,0,0-4.051,4.051v12.154A4.056,4.056,0,0,0,6296.173,624.039Zm-2.025-16.205a2.027,2.027,0,0,1,2.025-2.026h20.256a2.028,2.028,0,0,1,2.026,2.026v12.154a2.028,2.028,0,0,1-2.026,2.026h-7.09a1.013,1.013,0,0,0-1.013,1.013v2.159l-4.5-3a1.014,1.014,0,0,0-.562-.17h-7.09a2.028,2.028,0,0,1-2.025-2.026Z" transform="translate(-6292.122 -589.445)" fill="#f93082"/>
      <path id="Path_259" data-name="Path 259" d="M6334.092,672.11a1.012,1.012,0,0,0,1.011,0l7.089-4.051a1.013,1.013,0,0,0,0-1.759l-7.089-4.051a1.013,1.013,0,0,0-1.516.879v8.1A1.011,1.011,0,0,0,6334.092,672.11Zm1.521-7.233,4.036,2.306-4.036,2.306Z" transform="translate(-6323.459 -642.717)" fill="#f93082"/>
    </g>
  </g>
</svg>
