<svg xmlns="http://www.w3.org/2000/svg" width="107.491" height="104.912" viewBox="0 0 107.491 104.912">
  <g id="Group_698" data-name="Group 698" transform="translate(-385.926 -376.545)">
    <g id="Group_82" data-name="Group 82" transform="translate(386.48 377.208)" opacity="0.12">
      <g id="Group_81" data-name="Group 81">
        <rect id="Rectangle_1524" data-name="Rectangle 1524" width="25.544" height="1.173" transform="matrix(0.566, -0.825, 0.825, 0.566, 12.424, 59.438)" fill="#66a1d3" stroke="#66a1d3" stroke-width="0.75"/>
        <path id="Path_175" data-name="Path 175" d="M406.681,732.711l-20.2-9.98,5.965-8.7.967.664-5.2,7.581,18.988,9.381Z" transform="translate(-386.48 -645.179)" fill="#66a1d3" stroke="#66a1d3" stroke-width="0.75"/>
        <path id="Path_176" data-name="Path 176" d="M604.5,860.2l-10.839-5.355.52-1.052,10.319,5.1,9.863-4.873.52,1.052Z" transform="translate(-551.31 -756.366)" fill="#66a1d3" stroke="#66a1d3" stroke-width="0.75"/>
        <path id="Path_177" data-name="Path 177" d="M848.433,696.231l-.52-1.052,8.719-4.307L845.9,675.221l.967-.664,11.5,16.767Z" transform="translate(-751.982 -613.772)" fill="#66a1d3" stroke="#66a1d3" stroke-width="0.75"/>
        <path id="Path_178" data-name="Path 178" d="M589.478,395.21l-.967-.664L600.4,377.208l11.657,17-.967.663L600.4,379.282Z" transform="translate(-547.211 -377.208)" fill="#66a1d3" stroke="#66a1d3" stroke-width="0.75"/>
        <rect id="Rectangle_1525" data-name="Rectangle 1525" width="1.173" height="27.804" transform="matrix(0.443, -0.897, 0.897, 0.443, 19.11, 82.676)" fill="#66a1d3" stroke="#66a1d3" stroke-width="0.75"/>
        <path id="Path_179" data-name="Path 179" d="M823.084,693.6l-.52-1.052,9.153-4.522-9.95-14.506.967-.664,10.715,15.622Z" transform="translate(-732.785 -612.418)" fill="#66a1d3" stroke="#66a1d3" stroke-width="0.75"/>
        <rect id="Rectangle_1526" data-name="Rectangle 1526" width="1.173" height="43.759" transform="matrix(0.825, -0.566, 0.566, 0.825, 64.232, 25.014)" fill="#66a1d3" stroke="#66a1d3" stroke-width="0.75"/>
        <g id="Group_80" data-name="Group 80" transform="translate(11.696 13.377)">
          <g id="Group_78" data-name="Group 78" transform="translate(0 53.306)">
            <path id="Path_180" data-name="Path 180" d="M496.067,767.14a.058.058,0,0,1-.026-.006l-.947-.468a.059.059,0,1,1,.052-.105l.946.468a.059.059,0,0,1-.026.111Z" transform="translate(-484.562 -753.647)" fill="#66a1d3" stroke="#66a1d3" stroke-width="0.75"/>
            <path id="Path_181" data-name="Path 181" d="M463.557,751.078a.057.057,0,0,1-.026-.006l-1.905-.941a.059.059,0,0,1,.052-.105l1.905.941a.059.059,0,0,1-.026.111Zm-3.81-1.883a.056.056,0,0,1-.026-.006l-1.905-.941a.059.059,0,0,1,.052-.105l1.905.941a.059.059,0,0,1-.026.111Z" transform="translate(-454.903 -738.994)" fill="#66a1d3" stroke="#66a1d3" stroke-width="0.75"/>
            <path id="Path_182" data-name="Path 182" d="M444.728,738.442a.059.059,0,0,1-.026-.006l-1.007-.5.635-.926a.059.059,0,1,1,.1.066l-.559.815.886.438a.059.059,0,0,1-.026.111Z" transform="translate(-443.695 -730.122)" fill="#66a1d3" stroke="#66a1d3" stroke-width="0.75"/>
            <path id="Path_183" data-name="Path 183" d="M453.514,719.556a.059.059,0,0,1-.048-.092l1.37-2a.059.059,0,1,1,.1.066l-1.37,2A.058.058,0,0,1,453.514,719.556Z" transform="translate(-451.46 -714.573)" fill="#66a1d3" stroke="#66a1d3" stroke-width="0.75"/>
            <path id="Path_184" data-name="Path 184" d="M466.919,704.4a.057.057,0,0,1-.033-.01.058.058,0,0,1-.015-.081l.6-.871a.059.059,0,0,1,.1.066l-.6.871A.058.058,0,0,1,466.919,704.4Z" transform="translate(-462.125 -703.41)" fill="#66a1d3" stroke="#66a1d3" stroke-width="0.75"/>
          </g>
          <g id="Group_79" data-name="Group 79" transform="translate(11.447 66.682)">
            <path id="Path_185" data-name="Path 185" d="M597.069,817.038a.059.059,0,0,1-.026-.006l-.946-.468a.059.059,0,1,1,.052-.105l.946.468a.059.059,0,0,1-.026.111Z" transform="translate(-576.363 -806.721)" fill="#66a1d3" stroke="#66a1d3" stroke-width="0.75"/>
            <path id="Path_186" data-name="Path 186" d="M529.161,783.49a.059.059,0,0,1-.026-.006l-2.084-1.029a.059.059,0,0,1,.052-.105l2.084,1.029a.059.059,0,0,1-.026.111Zm-4.168-2.059a.059.059,0,0,1-.026-.006l-2.084-1.029a.059.059,0,0,1,.052-.105l2.084,1.03a.059.059,0,0,1-.026.111Zm-4.168-2.059a.059.059,0,0,1-.026-.006l-2.084-1.029a.059.059,0,0,1,.052-.105l2.084,1.029a.059.059,0,0,1-.026.111Zm-4.167-2.059a.059.059,0,0,1-.026-.006l-2.084-1.029a.059.059,0,1,1,.052-.105l2.084,1.029a.059.059,0,0,1-.026.111Z" transform="translate(-511.486 -774.669)" fill="#66a1d3" stroke="#66a1d3" stroke-width="0.75"/>
            <path id="Path_187" data-name="Path 187" d="M500.7,769.427a.058.058,0,0,1-.026-.006l-.946-.467a.059.059,0,1,1,.052-.105l.946.468a.059.059,0,0,1-.026.111Z" transform="translate(-499.693 -768.842)" fill="#66a1d3" stroke="#66a1d3" stroke-width="0.75"/>
          </g>
          <path id="Path_188" data-name="Path 188" d="M609.616,817.759l-9.525-4.706.364-.736,9.161,4.526,11.715-5.787.364.736Z" transform="translate(-568.12 -735.744)" fill="#66a1d3" stroke="#66a1d3" stroke-width="0.75"/>
          <rect id="Rectangle_1527" data-name="Rectangle 1527" width="16.77" height="0.821" transform="translate(59.278 72.314) rotate(-26.29)" fill="#66a1d3" stroke="#66a1d3" stroke-width="0.75"/>
          <path id="Path_189" data-name="Path 189" d="M799.067,682.577a.059.059,0,0,1-.026-.111l1.893-.935a.059.059,0,0,1,.052.105l-1.893.935A.06.06,0,0,1,799.067,682.577Zm3.786-1.87a.059.059,0,0,1-.026-.111l1.893-.935a.059.059,0,0,1,.052.105l-1.893.935A.059.059,0,0,1,802.853,680.706Zm3.171-2.031a.059.059,0,0,1-.048-.025l-1.194-1.742a.059.059,0,0,1,.1-.066l1.195,1.741a.059.059,0,0,1-.015.082A.058.058,0,0,1,806.024,678.675Zm-2.389-3.483a.058.058,0,0,1-.048-.026l-1.194-1.741a.059.059,0,0,1,.1-.066l1.194,1.741a.058.058,0,0,1-.048.092Zm-2.389-3.483a.058.058,0,0,1-.048-.026L800,669.943a.059.059,0,0,1,.1-.066l1.194,1.741a.058.058,0,0,1-.048.092Zm-2.389-3.483a.059.059,0,0,1-.048-.026l-1.194-1.741a.059.059,0,0,1,.1-.066l1.194,1.741a.058.058,0,0,1-.015.081A.057.057,0,0,1,798.858,668.227Zm-2.389-3.483a.059.059,0,0,1-.048-.026l-1.194-1.741a.059.059,0,1,1,.1-.066l1.194,1.741a.059.059,0,0,1-.015.081A.057.057,0,0,1,796.47,664.745Z" transform="translate(-723.357 -617.864)" fill="#66a1d3" stroke="#66a1d3" stroke-width="0.75"/>
          <path id="Path_190" data-name="Path 190" d="M716.183,547.688a.059.059,0,0,1-.048-.025l-1.194-1.742a.059.059,0,0,1,.1-.066l1.194,1.741a.059.059,0,0,1-.048.092Zm-2.389-3.483a.058.058,0,0,1-.048-.026l-1.194-1.741a.059.059,0,1,1,.1-.066l1.194,1.741a.059.059,0,0,1-.048.092Zm-2.389-3.483a.058.058,0,0,1-.048-.026l-1.194-1.741a.059.059,0,0,1,.1-.066l1.194,1.741a.059.059,0,0,1-.015.082A.058.058,0,0,1,711.406,540.722Zm-2.389-3.483a.059.059,0,0,1-.048-.026l-1.194-1.741a.059.059,0,0,1,.1-.066l1.194,1.741a.059.059,0,0,1-.015.081A.058.058,0,0,1,709.017,537.24Zm-2.389-3.483a.059.059,0,0,1-.048-.026l-1.194-1.741a.059.059,0,1,1,.1-.066l1.194,1.741a.059.059,0,0,1-.015.081A.057.057,0,0,1,706.628,533.757Zm-2.389-3.483a.058.058,0,0,1-.048-.026L703,528.508a.059.059,0,0,1,.015-.082.058.058,0,0,1,.081.015l1.194,1.741a.059.059,0,0,1-.048.092Zm-2.388-3.483a.059.059,0,0,1-.048-.026l-1.194-1.741a.059.059,0,1,1,.1-.066L701.9,526.7a.059.059,0,0,1-.048.092Zm-2.389-3.483a.059.059,0,0,1-.048-.025l-1.194-1.741a.059.059,0,1,1,.1-.066l1.194,1.741a.059.059,0,0,1-.048.092Zm-2.389-3.483a.059.059,0,0,1-.049-.025l-1.194-1.741a.059.059,0,1,1,.1-.067l1.194,1.741a.059.059,0,0,1-.015.082A.058.058,0,0,1,697.074,519.827Z" transform="translate(-644.281 -502.571)" fill="#66a1d3" stroke="#66a1d3" stroke-width="0.75"/>
          <path id="Path_191" data-name="Path 191" d="M592.172,459.558l-.677-.464,11.282-16.449,10.442,15.224-.677.464L602.777,444.1Z" transform="translate(-561.281 -442.645)" fill="#66a1d3" stroke="#66a1d3" stroke-width="0.75"/>
          <rect id="Rectangle_1528" data-name="Rectangle 1528" width="19.49" height="0.821" transform="translate(12.342 42.506) rotate(-55.557)" fill="#66a1d3" stroke="#66a1d3" stroke-width="0.75"/>
          <rect id="Rectangle_1529" data-name="Rectangle 1529" width="12.887" height="0.821" transform="translate(5.053 53.133) rotate(-55.557)" fill="#66a1d3" stroke="#66a1d3" stroke-width="0.75"/>
        </g>
        <path id="Path_192" data-name="Path 192" d="M514.188,555.77l-.13-.064-33.915-16.755,34.045-49.637,34.045,49.637Zm-33.178-17.046,33.178,16.391,33.178-16.391-33.178-48.373Z" transform="translate(-460.996 -466.397)" fill="#66a1d3" stroke="#66a1d3" stroke-width="0.75" opacity="0.1"/>
        <path id="Path_193" data-name="Path 193" d="M538.464,580.116l-27.807-13.738.115-.167,27.692-40.375,27.807,40.542-.182.09Zm-27.287-13.874,27.287,13.481,27.287-13.481-27.287-39.784Z" transform="translate(-485.272 -495.453)" fill="#66a1d3" stroke="#66a1d3" stroke-width="0.75" opacity="0.08"/>
        <path id="Path_194" data-name="Path 194" d="M564.763,606.492l-21.049-10.4L564.763,565.4l21.049,30.689Zm-20.53-10.535,20.53,10.142,20.529-10.142-20.529-29.932Z" transform="translate(-511.572 -526.932)" fill="#66a1d3" stroke="#66a1d3" stroke-width="0.75" opacity="0.06"/>
        <path id="Path_195" data-name="Path 195" d="M595.784,637.6l-13.079-6.461,13.079-19.069,13.079,19.069ZM583.225,631l12.559,6.2,12.559-6.2-12.559-18.311Z" transform="translate(-542.592 -564.06)" fill="#66a1d3" stroke="#66a1d3" stroke-width="0.75" opacity="0.04"/>
        <path id="Path_196" data-name="Path 196" d="M622.758,664.654l-6.148-3.037,6.148-8.963,6.148,8.963Zm-5.975-3.083,5.975,2.952,5.974-2.952-5.974-8.711Z" transform="translate(-569.566 -596.346)" fill="#66a1d3" stroke="#66a1d3" stroke-width="0.75" opacity="0.03"/>
      </g>
    </g>
    <g id="Group_83" data-name="Group 83" transform="translate(411.032 407.477)">
      <path id="Path_197" data-name="Path 197" d="M511.47,618.063h43.012a4.894,4.894,0,0,0,4.888-4.888V577.984a4.894,4.894,0,0,0-4.888-4.888H553.5v1.955h.978a2.936,2.936,0,0,1,2.933,2.933v35.192a2.936,2.936,0,0,1-2.933,2.932H511.47a2.936,2.936,0,0,1-2.933-2.932V577.984a2.936,2.936,0,0,1,2.933-2.933h28.349V573.1H511.47a4.894,4.894,0,0,0-4.888,4.888v35.192A4.894,4.894,0,0,0,511.47,618.063Z" transform="translate(-506.582 -563.32)" fill="#66a1d3"/>
      <rect id="Rectangle_1530" data-name="Rectangle 1530" width="1.955" height="1.955" transform="translate(3.91 13.686)" fill="#66a1d3"/>
      <rect id="Rectangle_1531" data-name="Rectangle 1531" width="1.955" height="1.955" transform="translate(7.82 13.686)" fill="#66a1d3"/>
      <rect id="Rectangle_1532" data-name="Rectangle 1532" width="1.955" height="1.955" transform="translate(11.731 13.686)" fill="#66a1d3"/>
      <rect id="Rectangle_1533" data-name="Rectangle 1533" width="1.955" height="1.955" transform="translate(46.922 17.596)" fill="#66a1d3"/>
      <rect id="Rectangle_1534" data-name="Rectangle 1534" width="29.326" height="1.955" transform="translate(3.91 17.596)" fill="#66a1d3"/>
      <path id="Path_198" data-name="Path 198" d="M526.688,635.262a.977.977,0,0,0-.978.978V647.97a.977.977,0,0,0,.978.978h13.686a.977.977,0,0,0,.978-.978V636.24a.977.977,0,0,0-.978-.978ZM539.4,646.993H527.665v-9.776H539.4Z" transform="translate(-521.8 -612.778)" fill="#66a1d3"/>
      <rect id="Rectangle_1535" data-name="Rectangle 1535" width="6.843" height="1.955" transform="translate(22.484 22.484)" fill="#66a1d3"/>
      <rect id="Rectangle_1536" data-name="Rectangle 1536" width="1.955" height="1.955" transform="translate(31.282 22.484)" fill="#66a1d3"/>
      <rect id="Rectangle_1537" data-name="Rectangle 1537" width="3.91" height="1.955" transform="translate(22.484 27.371)" fill="#66a1d3"/>
      <rect id="Rectangle_1538" data-name="Rectangle 1538" width="4.888" height="1.955" transform="translate(28.349 27.371)" fill="#66a1d3"/>
      <rect id="Rectangle_1539" data-name="Rectangle 1539" width="10.753" height="1.955" transform="translate(22.484 32.259)" fill="#66a1d3"/>
      <rect id="Rectangle_1540" data-name="Rectangle 1540" width="10.753" height="1.955" transform="translate(22.484 37.147)" fill="#66a1d3"/>
      <rect id="Rectangle_1541" data-name="Rectangle 1541" width="12.708" height="1.955" transform="translate(22.484 46.922)" fill="#66a1d3"/>
      <rect id="Rectangle_1542" data-name="Rectangle 1542" width="5.865" height="1.955" transform="translate(22.484 42.035)" fill="#66a1d3"/>
      <rect id="Rectangle_1543" data-name="Rectangle 1543" width="2.933" height="1.955" transform="translate(30.304 42.035)" fill="#66a1d3"/>
      <rect id="Rectangle_1544" data-name="Rectangle 1544" width="1.955" height="1.955" transform="translate(46.922 22.484)" fill="#66a1d3"/>
      <rect id="Rectangle_1545" data-name="Rectangle 1545" width="1.955" height="1.955" transform="translate(46.922 27.371)" fill="#66a1d3"/>
      <rect id="Rectangle_1546" data-name="Rectangle 1546" width="1.955" height="1.955" transform="translate(46.922 32.259)" fill="#66a1d3"/>
      <rect id="Rectangle_1547" data-name="Rectangle 1547" width="1.955" height="1.955" transform="translate(46.922 37.147)" fill="#66a1d3"/>
      <rect id="Rectangle_1548" data-name="Rectangle 1548" width="1.955" height="1.955" transform="translate(46.922 42.035)" fill="#66a1d3"/>
      <path id="Path_199" data-name="Path 199" d="M535.274,642.845V644.8h43.012a7.829,7.829,0,0,0,7.82-7.82V601.788h-1.955V636.98a5.872,5.872,0,0,1-5.865,5.865Z" transform="translate(-529.409 -586.147)" fill="#66a1d3"/>
      <path id="Path_200" data-name="Path 200" d="M683.621,525.276a4.894,4.894,0,0,0-4.888,4.888v38.125a.982.982,0,0,0,.129.485l3.91,6.843a.977.977,0,0,0,1.7,0l3.91-6.843a.981.981,0,0,0,.129-.485V530.164A4.894,4.894,0,0,0,683.621,525.276Zm0,1.955a2.936,2.936,0,0,1,2.933,2.933v.978h-5.865v-.978A2.936,2.936,0,0,1,683.621,527.231Zm.978,40.08v-30.3h1.955v30.3Zm-3.91,0v-30.3h1.955v30.3Zm0-32.259V533.1h5.865v1.955Zm2.933,38.109-2.226-3.895h4.451Z" transform="translate(-643.541 -525.276)" fill="#66a1d3"/>
    </g>
  </g>
</svg>
